<svg viewBox="0 0 16 16">
  <path d="M15.473,3.9036c-1.058-2.4434-3.755-3.8084-6.3282-3.8911-3.5492-0.29648-7.2802,1.8013-8.5265,5.2049-1.0411,2.6325-0.85115,5.9126,1.0303,8.1266,1.6251,1.855,4.1573,2.575,6.548,2.6543,1.4853,0.05032,3.01-0.1139,4.4083-0.61163,0.472-0.734-0.494-1.652-1.164-1.007-2.3062,0.585-4.8434,0.457-7.0115-0.557-1.701-0.874-2.8987-2.651-3.0068-4.5693-0.3396-3.0609,1.4167-6.3558,4.371-7.434,2.5671-1.0269,5.8603-0.5744,7.7143,1.5888,1.5171,1.8867,1.4261,4.8432-0.11727,6.6841-0.59021,0.61316-2.0605,1.5636-2.6395,0.52862-0.08125-1.008,0.3973-1.9746,0.53885-2.9666,0.31164-1.3504,0.63667-2.6977,0.944-4.049h-1.597c-0.06363,0.27427-0.12726,0.54854-0.19088,0.82282-1.4819-1.5427-4.2013-1.2038-5.5382,0.3588-1.4699,1.5833-2.0136,4.0431-1.1938,6.061,0.74336,1.4957,2.7567,2.0005,4.2031,1.2549,0.51842-0.1381,1.1101-0.88312,1.3755-0.94532,0.19656,1.0465,1.4412,1.45,2.3752,1.2392,2.1577-0.19727,3.8512-2.12,4.1614-4.2032,0.301-1.4218,0.237-2.9499-0.357-4.2902zm-6.0317,4.6079c-0.2508,1.4164-1.5684,2.8105-3.1018,2.5205-1.0489-0.214-1.4098-1.4419-1.2663-2.38,0.0681-1.5324,0.8096-3.2654,2.3543-3.8022,0.9569-0.2483,2.0106,0.1326,2.6665,0.8533-0.2175,0.9361-0.4351,1.8722-0.6527,2.8084z"/>
</svg>
