<svg viewBox="0 0 16 16">
  <path
    d="M2,1c-0.3274,0-0.54,0.0981-0.75,0.3125-0.236,0.2409-0.28125,0.3554-0.28125,0.6875,0,0.33212,0.063181,0.49614,0.28125,0.71875,0.21002,0.2144,0.42258,0.3125,0.75,0.3125,2.9944,0,5.6394,1.0995,7.75,3.2188,2.109,2.1177,3.2188,4.7685,3.2188,7.75,0,0.33212,0.06317,0.49613,0.28125,0.71875,0.21002,0.2144,0.42258,0.3125,0.75,0.3125,0.32803,0,0.47476-0.06809,0.71875-0.3125,0.23509-0.23469,0.3125-0.41354,0.3125-0.71875,0-2.3688-0.57748-4.491-1.75-6.5-1.174-2.0113-2.766-3.5821-4.782-4.751-2.0116-1.1666-4.1332-1.75-6.5-1.75zm0,6c-0.3634,0-0.558,0.0852-0.75,0.2812-0.2181,0.2227-0.28125,0.3867-0.28125,0.7188,0,0.33212,0.063181,0.49614,0.28125,0.71875,0.21002,0.2144,0.42258,0.3125,0.75,0.3125,1.3391,0,2.5649,0.53364,3.5,1.4688,0.93511,0.93511,1.4688,2.1609,1.4688,3.5,0,0.33249,0.063725,0.49696,0.28125,0.71875,0.20988,0.21436,0.42234,0.3125,0.75,0.3125s0.47395-0.06758,0.71875-0.3125c0.2356-0.237,0.3124-0.415,0.3124-0.72,0-1.98-0.6543-3.536-2.0624-4.9375-1.4081-1.4008-2.9908-2.0625-4.9688-2.0625zm0,6c-0.3636,0-0.5581,0.085-0.75,0.281-0.2175,0.222-0.28125,0.387-0.28125,0.719,0,0.3325,0.063725,0.49696,0.28125,0.71875,0.20988,0.21436,0.42234,0.3125,0.75,0.3125s0.47395-0.06758,0.71875-0.3125c0.23565-0.23565,0.3125-0.41416,0.3125-0.71875s-0.076853-0.4831-0.3125-0.71875c-0.2268-0.228-0.3554-0.282-0.7188-0.282z" />
</svg>
