<?xml version="1.0" encoding="UTF-8" standalone="no"?>
<!-- Created with Inkscape (http://www.inkscape.org/) -->
<svg id="svg2" xmlns:rdf="http://www.w3.org/1999/02/22-rdf-syntax-ns#" xmlns="http://www.w3.org/2000/svg" height="348.78" width="291.66" version="1.1" xmlns:cc="http://creativecommons.org/ns#" xmlns:dc="http://purl.org/dc/elements/1.1/">
 <g id="layer1" transform="translate(-250.02928,-410.56596)">
  <path id="path3794" d="m622.25,671.03c0,59.137-47.94,107.08-107.08,107.08-59.137,0-107.08-47.94-107.08-107.08,0-59.137,47.94-107.08,107.08-107.08,59.137,0,107.08,47.94,107.08,107.08z" transform="matrix(1.3619089,0,0,1.3619089,-305.76795,-300.36553)" fill="#ffe000"/>
  <path id="path3792" stroke-linejoin="miter" d="m443.57,657.72-29.888,11.997" stroke="#b3b3b3" stroke-linecap="butt" stroke-width="1px" fill="none"/>
  <path id="path3834" stroke-linejoin="miter" d="m377.8,706.89s-28.076-4.9202-43.689-2.7779c-13.836,1.8984-44.952,3.283-44.952,3.283" fill-opacity="0" stroke="#00b5ff" stroke-linecap="square" stroke-miterlimit="4" stroke-dasharray="none" stroke-width="2"/>
  <path id="path3000" fill="#FFF" d="M355,686.65,353.93,677.36,460,663.79l10.714,9.2857-51.957,21.734z"/>
  <path id="path2998" fill="#dc0c00" d="m309.28,704.62-14.634-15.829s151.43,0.71429,233.21-30.357c-15.03,27.624-39.938,45.038-39.938,45.038s-57.556,32.968-84.649,22.166c-27.049-10.785-93.993-21.018-93.993-21.018z"/>
  <path id="path2998-7" fill="#000" d="m309.28,704.62s68.417,3.6189,102.55,1.6482c48.873-2.8219,90.912-15.424,90.912-15.424s-1.8547,2.6012-12.187,10.659c0,0-60.186,34.938-87.279,24.135-27.049-10.785-93.993-21.018-93.993-21.018z"/>
  <path id="path3778" fill="#00b5ff" d="m515.53,697.16c-2.8386,0.80313-53.978,14.94-127.31,11.469-62.972-2.9806-95.855,0.54387-101.59,1.25,26.723,30.318,65.815,49.469,109.41,49.469,49.424,0,93.126-24.577,119.5-62.188z"/>
  <path id="path3788" fill="#f2f2f2" d="m399.14,414.14,124.92,235.46s-48.854,1.9299-80.493,8.1192c1.8569-59.979-21.354-169.36-44.427-243.58z"/>
  <path id="path3922-6" stroke-linejoin="miter" d="m519.44,642.46-6.0821,0.73502-0.87867,7.0034" stroke="#e6e6e6" stroke-linecap="butt" stroke-width="1px" fill="none"/>
  <path id="rect4081" fill="#F00" d="m272.32,677.81s4.9955-1.4048,7.6668-1.2043c2.6714,0.20048,3.0187,2.0062,4.7937,0.92724,2.3379-1.4211,3.94-7.2002,3.94-7.2002l5.9218,11.672s-3.5076,3.9477-5.7706,3.6714c-4.3597-0.53244-8.6054,0.79442-8.6054,0.79442s-1.7496-3.9841-3.2143-5.5357c-1.2976-1.3746-4.7321-3.125-4.7321-3.125z"/>
  <path id="path4084" stroke-linejoin="miter" d="m288.72,670.33,9.2747,18.454" stroke="#b3b3b3" stroke-linecap="butt" stroke-width="1px" fill="none"/>
  <path id="path3922-6-2" stroke-linejoin="miter" d="m514.38,632.85-9.4796,2.8782-1.4435,15.042" stroke="#e6e6e6" stroke-linecap="butt" stroke-width="1px" fill="none"/>
  <path id="path3002" stroke-linejoin="miter" d="M527.86,658.43,399.14,414.14c-36.584,91.551-69.667,183.1-104.5,274.65" stroke="#000" stroke-linecap="butt" stroke-width="1px" fill="none"/>
  <path id="path3786" fill="#f2f2f2" d="M399.14,414.14c-19.97,181.53-73.07,248.94-73.07,248.94l107.8-13.19z"/>
  <path id="path3776" stroke-linejoin="miter" d="M326.07,663.08,399.14,414.14" stroke="#999" stroke-linecap="butt" stroke-width="1px" fill="none"/>
  <path id="path3780" stroke-linejoin="miter" d="m326.07,663.08,3.2906,25.037" stroke="#b3b3b3" stroke-linecap="butt" stroke-width="1px" fill="none"/>
  <path id="path3918" stroke-linejoin="miter" d="m443.71,651.02,6.1095-0.71405,1.3591,6.0517" stroke="#ececec" stroke-linecap="butt" stroke-width="1px" fill="none"/>
  <path id="path3920" stroke-linejoin="miter" d="m443.7,643.69,10.323,0.90036,3.4686,10.799" stroke="#ececec" stroke-linecap="butt" stroke-width="1px" fill="none"/>
  <path id="path3922" stroke-linejoin="miter" d="m443.37,634.23,16.02,3.5128,6.0566,16.581" stroke="#e6e6e6" stroke-linecap="butt" stroke-width="1px" fill="none"/>
  <path id="path3782" stroke-linejoin="miter" d="m430.83,640.93,51.818-22.139" stroke="#999" stroke-linecap="butt" stroke-miterlimit="4" stroke-dasharray="none" stroke-width="4" fill="none"/>
  <path id="path3924" stroke-linejoin="miter" d="m335.05,649.07,7.6326,0.61175,0.95391,11.244" stroke="#ececec" stroke-linecap="butt" stroke-width="1px" fill="none"/>
  <path id="path3926" stroke-linejoin="miter" d="m338.63,642.59,8.6888,1.3837,2.6663,16.181" stroke="#ececec" stroke-linecap="butt" stroke-width="1px" fill="none"/>
  <path id="path3928" stroke-linejoin="miter" d="m342.51,635.05,9.9856,2.6704,4.4785,21.575" stroke="#ececec" stroke-linecap="butt" stroke-width="1px" fill="none"/>
  <path id="path3930" stroke-linejoin="miter" d="m421.24,651.43-0.17524-9.3191,6.4138-5.6479" stroke="#ececec" stroke-linecap="butt" stroke-width="1px" fill="none"/>
  <path id="path3932" stroke-linejoin="miter" d="m413.02,652.44,1.4271-12.813,14.147-7.9754" stroke="#ececec" stroke-linecap="butt" stroke-width="1px" fill="none"/>
  <path id="path3934" stroke-linejoin="miter" d="m406.67,653.21,1.298-16.791,19.83-13.276" stroke="#ececec" stroke-linecap="butt" stroke-width="1px" fill="none"/>
  <path id="path3934-6" stroke-linejoin="miter" d="m416.94,608.46-0.66587-9.3776,8.2853-4.6498" stroke="#ececec" stroke-linecap="butt" stroke-width="1px" fill="none"/>
  <path id="path3936" stroke-linejoin="miter" d="m351.22,616.12s25.808-2.3007,38.666-3.8592c11.405-1.3824,34.121-4.8694,34.121-4.8694" stroke="#ececec" stroke-linecap="butt" stroke-width="1px" fill="none"/>
  <path id="path3938" stroke-linejoin="miter" d="m367.19,572.84s18.84-0.75778,28.168-2.0263c8.4691-1.1517,25.137-5.0567,25.137-5.0567" stroke="#e6e6e6" stroke-linecap="butt" stroke-width="1px" fill="none"/>
  <path id="path3940" stroke-linejoin="miter" d="m378.51,532.81s13.914-1.1249,20.807-2.1822c5.2968-0.81245,15.756-3.1923,15.756-3.1923" stroke="#e6e6e6" stroke-linecap="butt" stroke-width="1px" fill="none"/>
  <path id="path3942" stroke-linejoin="miter" d="m391.39,470.42s4.8811-0.76196,7.2758-1.3546c2.6467-0.65497,7.8116-2.426,7.8116-2.426" stroke="#ececec" stroke-linecap="butt" stroke-width="1px" fill="none"/>
  <path id="path3944" stroke-linejoin="miter" d="m386.25,498.36s8.2698-1.3647,12.389-2.1368c4.09-0.76678,12.235-2.4782,12.235-2.4782" stroke="#e6e6e6" stroke-linecap="butt" stroke-width="1px" fill="none"/>
  <path id="path3934-3" stroke-linejoin="miter" d="m410.2,609.46,0.17474-12.428,13.31-8.7351" stroke="#ececec" stroke-linecap="butt" stroke-width="1px" fill="none"/>
  <path id="path3004" stroke-linejoin="miter" d="M434.82,667.01,398.9,413.07" stroke="#808080" stroke-linecap="butt" stroke-miterlimit="4" stroke-dasharray="none" stroke-width="5.00980139" fill="none"/>
  <path id="path3914" stroke-linejoin="miter" d="m416.07,540.93,16.596,138.97" stroke="#000" stroke-linecap="butt" stroke-width="1px" fill="none"/>
  <path id="path3910" stroke-linejoin="miter" d="m417.82,540.93-7.8209,0.71429" stroke="#808080" stroke-linecap="butt" stroke-miterlimit="4" stroke-dasharray="none" stroke-width="2.26993871" fill="none"/>
  <rect id="rect4106-5" transform="matrix(0.99415415,-0.10796999,0.07899174,0.99687527,0,0)" rx="1.3391" ry="3.4945" height="4.2359" width="11.276" y="715.18" x="383.35" fill="#666"/>
  <path id="path3916" stroke-linejoin="miter" d="m410,541.65,32.967,136.82" stroke="#000" stroke-linecap="butt" stroke-width="1px" fill="none"/>
  <path id="path3774" stroke-linejoin="miter" d="M430.29,650.32,326.07,663.08" stroke="#808080" stroke-linecap="butt" stroke-miterlimit="4" stroke-dasharray="none" stroke-width="5" fill="none"/>
  <rect id="rect4106-5-0" transform="matrix(0.99415415,-0.10796999,0.07899174,0.99687527,0,0)" rx="1.3391" ry="3.4945" height="4.2359" width="11.276" y="715.3" x="358.78" fill="#666"/>
  <path id="path3912" stroke-linejoin="miter" d="m399.14,414.14,10.856,127.51,10.851,139.73" stroke="#000" stroke-linecap="butt" stroke-width="1px" fill="none"/>
  <path id="path3790" stroke-linejoin="miter" d="M419.18,632.65,312.67,688.58" stroke="#b3b3b3" stroke-linecap="butt" stroke-width="1px" fill="none"/>
  <path id="path3784" fill="#82b5dc" d="m419.18,632.65c24.128-21.615,9.0923-111.71-7.2611-145.76,104.98,37.822,70.72,131.9,70.72,131.9s-20.024,8.3492-63.459,13.855z"/>
  <path id="path4040" fill="#b3b3b3" d="m342.83,687.24-1.7461-4.0279,7.228-0.50508-0.8189,4.2282z"/>
  <path id="path2998-5" d="m294.64,688.79s151.43,0.71429,233.21-30.357" stroke="#800000" stroke-dasharray="none" stroke-miterlimit="4" stroke-width="2" fill="none"/>
  <path id="path2998-7-5" d="m307.83,703.06s70.086,3.3517,104.22,1.381c48.873-2.8219,91.269-15.129,91.269-15.129" stroke="#000" stroke-linecap="round" fill="none"/>
  <path id="path2996" stroke-linejoin="miter" d="m303.17,711.45s82.189-11.15,140.43-8.5078c52.215,2.3693,67.917-3.8084,67.917-3.8084" stroke="#00b5ff" stroke-linecap="butt" stroke-miterlimit="4" stroke-dasharray="none" stroke-width="2" fill="none"/>
  <path id="path2996-8" stroke-linejoin="miter" d="m316.19,709.19s71.638-5.6031,107.06-2.153c36.581,3.5629,85.901-13.107,85.901-13.107" stroke="#00b5ff" stroke-linecap="butt" stroke-miterlimit="4" stroke-dasharray="none" stroke-width="2" fill="none"/>
  <path id="path4000" d="m328.57,437.01c0,7.1008-5.5964,12.857-12.5,12.857s-12.5-5.7563-12.5-12.857c0-7.1008,5.5964-12.857,12.5-12.857s12.5,5.7563,12.5,12.857z" transform="matrix(0.27610689,0,0,0.45824975,309.61303,282.67817)" fill="#e6e6e6"/>
  <path id="path4000-7" d="m328.57,437.01c0,7.1008-5.5964,12.857-12.5,12.857s-12.5-5.7563-12.5-12.857c0-7.1008,5.5964-12.857,12.5-12.857s12.5,5.7563,12.5,12.857z" transform="matrix(0.0552133,0,0,0.09163654,377.65217,443.15784)" fill="#f9f9f9"/>
  <path id="path4000-7-4" d="m328.57,437.01c0,7.1008-5.5964,12.857-12.5,12.857s-12.5-5.7563-12.5-12.857c0-7.1008,5.5964-12.857,12.5-12.857s12.5,5.7563,12.5,12.857z" transform="matrix(0.0552133,0,0,0.09163654,380.67365,442.40583)" fill="#f9f9f9"/>
  <path id="path4038" stroke-linejoin="miter" d="m482.64,618.79,45.214,39.643" stroke="#b3b3b3" stroke-linecap="butt" stroke-width="1px" fill="none"/>
  <path id="path4053" fill="#FFF" d="m287.33,542.24c1.2165-1.7084,5.0774-4.5804,7.11-5.289,1.3994-0.48784,1.5965-0.42981,2.431,0.71577,0.49946,0.68567,1.1464,1.2467,1.4377,1.2467,0.29127,0,1.4039-0.9523,2.4725-2.1162,1.5951-1.7374,2.2385-2.1162,3.5941-2.1162,1.7007,0,4.6067,1.6055,4.9841,2.7537,0.2673,0.81313-2.2008,0.33667-4.6341-0.89459-1.8096-0.91565-2.355-0.77608-3.1937,0.81716-0.46188,0.87745-0.38703,1.1391,0.5045,1.7635,0.57576,0.40328,0.76915,0.73324,0.42974,0.73324-0.3394,0-0.96845,0.39942-1.3979,0.8876-0.85787,0.97522-3.3669,1.934-5.061,1.934h-1.083l1.198-1.2927,1.198-1.2927-2.0286-0.34631c-1.5202-0.25953-2.1201-0.18289-2.3936,0.30577-0.40143,0.71733-5.2252,3.5664-6.0382,3.5664-0.28017,0-0.0684-0.61927,0.47049-1.3762z"/>
  <path id="path4053-5" fill="#FFF" d="m311.96,528.93-1.7698-0.35594,1.6196-0.73793c1.6222-0.73912,2.4391-3.5598,0.86855-2.9991-0.41308,0.14747-2.2856-1.1819-4.1613-2.9541-1.8756-1.7722-3.6773-3.2222-4.0037-3.2222-0.80978,0-4.3025-4.8254-4.3025-5.9442,0-0.60778,0.63515-0.30227,1.9527,0.93927,1.074,1.012,3.6722,2.8314,5.7737,4.043s5.0975,3.2793,6.6576,4.5949l2.8367,2.3919,4.6804-1.5278c5.5229-1.8029,6.8431-2.4432,8.4079-4.0779,0.7713-0.80576,1.2499-0.97549,1.4086-0.49954,0.45951,1.3785-0.40341,2.3671-2.685,3.0759-5.3271,1.655-8.6026,3.2535-8.4547,4.126,0.31737,1.8722-5.2688,3.8639-8.8288,3.1479z"/>
  <path id="path4073" stroke-linejoin="miter" d="M383.32,512.26,392.5,510.58" stroke="#CCC" stroke-linecap="butt" stroke-width="1px" fill="none"/>
  <path id="path4075" stroke-linejoin="miter" d="m373.9,550.31,12.063-1.1205" stroke="#CCC" stroke-linecap="butt" stroke-width="1px" fill="none"/>
  <path id="path4077" stroke-linejoin="miter" d="m360.75,591.82,15.676-1.3046" stroke="#CCC" stroke-linecap="butt" stroke-width="1px" fill="none"/>
  <path id="path4079" stroke-linejoin="miter" d="m346.6,626.53,17.566-1.2711" stroke="#CCC" stroke-linecap="butt" stroke-width="1px" fill="none"/>
  <path id="path4086" stroke-linejoin="miter" d="m373.4,674.87,29.129-3.7269" stroke="#800000" stroke-linecap="butt" stroke-width="1px" fill="none"/>
  <path id="path4086-9" stroke-linejoin="miter" d="m440.54,666.28,13.469-1.7233" stroke="#800000" stroke-linecap="butt" stroke-width="1px" fill="none"/>
  <rect id="rect4106" transform="matrix(0.99415415,-0.10796999,0.07899174,0.99687527,0,0)" rx="1.3391" ry="3.4945" height="4.2359" width="11.276" y="715.27" x="312.4" fill="#666"/>
  <rect id="rect4106-3" transform="matrix(0.99415415,-0.10796999,0.07899174,0.99687527,0,0)" rx="1.3391" ry="3.4945" height="4.2359" width="11.276" y="715.16" x="335.3" fill="#666"/>
  <path id="path3928-9" stroke-linejoin="miter" d="m355.05,606.85,6.4533,0.70408,0.61878,7.5683" stroke="#ececec" stroke-linecap="butt" stroke-width="1px" fill="none"/>
  <path id="path3928-9-0" stroke-linejoin="miter" d="m356.94,602.05,8.6753,1.7543,1.7156,10.823" stroke="#ececec" stroke-linecap="butt" stroke-width="1px" fill="none"/>
 </g>
 <metadata id="metadata4432">
  <rdf:RDF>
   <cc:Work rdf:about="">
    <dc:title/>
   </cc:Work>
  </rdf:RDF>
 </metadata>
</svg>
