<?xml version="1.0" encoding="UTF-8" standalone="no"?>
<!-- Created with Inkscape (http://www.inkscape.org/) -->

<svg
   xmlns:dc="http://purl.org/dc/elements/1.1/"
   xmlns:cc="http://creativecommons.org/ns#"
   xmlns:rdf="http://www.w3.org/1999/02/22-rdf-syntax-ns#"
   xmlns:svg="http://www.w3.org/2000/svg"
   xmlns="http://www.w3.org/2000/svg"
   xmlns:sodipodi="http://sodipodi.sourceforge.net/DTD/sodipodi-0.dtd"
   xmlns:inkscape="http://www.inkscape.org/namespaces/inkscape"
   height="855"
   width="540"
   version="1.1"
   id="svg2985"
   inkscape:version="0.48.4 r9939"
   sodipodi:docname="colors.svg">
  <defs
     id="defs3043" />
  <sodipodi:namedview
     pagecolor="#ffffff"
     bordercolor="#666666"
     borderopacity="1"
     objecttolerance="10"
     gridtolerance="10"
     guidetolerance="10"
     inkscape:pageopacity="0"
     inkscape:pageshadow="2"
     inkscape:window-width="959"
     inkscape:window-height="1053"
     id="namedview3041"
     showgrid="false"
     inkscape:zoom="0.55204678"
     inkscape:cx="258.51165"
     inkscape:cy="649.77554"
     inkscape:window-x="0"
     inkscape:window-y="0"
     inkscape:window-maximized="0"
     inkscape:current-layer="svg2985" />
  <metadata
     id="metadata2987">
    <rdf:RDF>
      <cc:Work
         rdf:about="">
        <dc:format>image/svg+xml</dc:format>
        <dc:type
           rdf:resource="http://purl.org/dc/dcmitype/StillImage" />
        <dc:title />
      </cc:Work>
    </rdf:RDF>
  </metadata>
  <path
     style="fill:#ffdd80"
     inkscape:connector-curvature="0"
     id="path2991"
     d="m 434.81,525.56782 c -9.8679,21.857 -23.958,41.762 -41.813,57.961 l 59.193,65.737 c 26.852,-24.481 48.614,-54.429 63.664,-87.618 l -81.044,-36.08 z" />
  <path
     style="fill:#ffaa80"
     inkscape:connector-curvature="0"
     id="path2993"
     d="m 451.34,452.01782 c -0.39047,23.965 -5.5026,47.844 -14.893,69.893 l 81.044,36.08 c 14.574,-33.349 22.274,-69.524 22.512,-105.97 h -88.664 z" />
  <path
     style="fill:#efff80"
     inkscape:connector-curvature="0"
     id="path2995"
     d="m 389.97,586.23782 c -1.5003,1.2954 -3.0152,2.5665 -4.5654,3.8095 -16.91,14.439 -36.51,25.105 -57.367,31.987 l 27.33,84.123 c 34.546,-11.546 66.577,-29.956 93.796,-54.183 l -59.193,-65.737 z" />
  <path
     style="fill:#bcff80"
     inkscape:connector-curvature="0"
     id="path2997"
     d="m 324.2,623.25782 c -22.916,6.9996 -47.25,9.4696 -71.126,7.3356 l -9.2568,88.09 c 36.223,3.658 73.135,-0.38651 107.71,-11.271 l -27.33,-84.155 z" />
  <path
     style="fill:#89ff80"
     inkscape:connector-curvature="0"
     id="path2999"
     d="m 180.94,608.27782 -44.174,76.505 c 31.623,18.027 66.862,29.494 103.02,33.498 l 9.2568,-88.09 c -23.866,-2.6588 -47.184,-9.9383 -68.103,-21.912 z" />
  <path
     style="fill:#80ffaa"
     inkscape:connector-curvature="0"
     id="path3001"
     d="m 124.42,558.24782 -71.661,52.073 c 21.677,29.395 49.061,54.004 80.509,72.506 l 44.206,-76.599 c -4.2062,-2.5453 -8.2965,-5.2815 -12.279,-8.2172 -15.836,-10.896 -29.526,-24.433 -40.774,-39.763 z" />
  <path
     style="fill:#80ffdd"
     inkscape:connector-curvature="0"
     id="path3003"
     d="m 93.22,489.64782 -86.869,18.449 c 7.6928,35.453 22.918,69.451 44.017,98.952 l 71.693,-52.073 c -13.72,-19.62 -23.54,-41.96 -28.84,-65.33 z" />
  <path
     style="fill:#80efff"
     inkscape:connector-curvature="0"
     id="path3005"
     d="m 5.5,395.82782 -0.2204,0.97599 -0.0944,0.50373 c -7.001,35.128 -6.9276,71.771 0.31485,106.85 l 86.869,-18.449 c -4.7957,-23.459 -5.0342,-47.842 -0.15742,-71.436 l -86.711,-18.449 z" />
  <path
     style="fill:#80bcff"
     inkscape:connector-curvature="0"
     id="path3007"
     d="m 50.37,292.93782 -0.59822,0.81856 -0.28337,0.40929 c -20.614,29.198 -35.553,62.768 -43.135,97.724 l 86.711,18.418 c 0.61174,-2.6355 1.3039,-5.2601 2.0466,-7.8708 5.315,-20.745 14.681,-40.106 27.078,-57.331 l -71.83,-52.17 z" />
  <path
     style="fill:#8089ff"
     inkscape:connector-curvature="0"
     id="path3009"
     d="m 133.27,217.18782 -0.85011,0.50374 -0.47228,0.28335 c -30.938,18.384 -57.829,42.749 -79.186,71.688 l 71.819,52.168 c 14.409,-19.106 32.59,-35.381 53.116,-47.697 l -44.43,-76.94 z" />
  <path
     style="fill:#aa80ff"
     inkscape:connector-curvature="0"
     id="path3011"
     d="m 239.78,181.70782 -1.0075,0.12593 -0.50377,0.063 c -35.567,4.1422 -70.328,15.519 -101.51,33.309 l 44.395,76.882 c 20.843,-11.903 43.957,-19.712 67.883,-22.322 l -9.2568,-88.059 z" />
  <path
     style="fill:#dd80ff"
     inkscape:connector-curvature="0"
     id="path3013"
     d="m 268.63,180.00782 c -1.8748,0.0121 -3.7611,0.042 -5.6359,0.0944 -6.4045,0.13076 -12.803,0.54484 -19.175,1.1964 l 9.2568,88.059 c 4.0975,-0.34471 8.2095,-0.5362 12.342,-0.5667 20.062,-0.7918 39.908,2.0758 58.721,8.0597 l 27.393,-84.281 c -26.72,-8.4069 -54.78,-12.743 -82.902,-12.562 z" />
  <path
     style="fill:#ff80ef"
     inkscape:connector-curvature="0"
     id="path3015"
     d="m 355.37,193.82782 -27.393,84.312 c 22.673,7.7796 43.744,20.067 61.775,35.86 l 59.413,-65.989 c -27.139,-24.158 -59.244,-42.624 -93.796,-54.183 z" />
  <path
     style="fill:#ff80bc"
     inkscape:connector-curvature="0"
     id="path3017"
     d="m 452.19,250.71782 -59.413,65.989 c 17.635,16.142 32.148,35.714 42.128,57.677 l 80.95,-36.048 c -14.955,-33.047 -36.86,-63.183 -63.664,-87.618 z" />
  <path
     style="fill:#ff818a;fill-opacity:1"
     inkscape:connector-curvature="0"
     id="path3019"
     d="m 517.49,341.98782 -80.95,36.048 c 1.6629,3.901 3.1637,7.8606 4.5339,11.901 6.826,18.679 10.179,38.362 10.296,58.055 h 88.632 c -0.23149,-36.453 -7.9367,-72.629 -22.512,-106 z" />
  <rect
     style="fill:#333333"
     id="rect3021"
     x="360"
     y="-0.0021793896"
     width="90"
     height="90" />
  <rect
     style="fill:#666666"
     id="rect3023"
     x="270"
     y="-0.0021793896"
     width="90"
     height="90" />
  <rect
     style="fill:#999999"
     id="rect3025"
     x="180"
     y="-0.0021793896"
     width="90"
     height="90" />
  <rect
     style="fill:#cccccc"
     id="rect3027"
     x="90"
     y="-0.0021793896"
     width="90"
     height="90" />
  <path
     style="fill:#ffdd80"
     inkscape:connector-curvature="0"
     id="path3029"
     d="m 45,766.99782 v 88 h 90 v -90 H 45 v 1 1 z" />
  <path
     style="fill:#89ff80"
     inkscape:connector-curvature="0"
     id="path3031"
     d="m 135,766.99782 v 88 h 90 v -90 h -90 v 1 1 z" />
  <path
     style="fill:#80efff"
     inkscape:connector-curvature="0"
     id="path3033"
     d="m 225,766.99782 v 88 h 90 v -90 h -90 v 1 1 z" />
  <path
     style="fill:#aa80ff"
     inkscape:connector-curvature="0"
     id="path3035"
     d="m 315,766.99782 v 88 h 90 v -90 h -90 v 1 1 z" />
  <path
     style="fill:#ff80bc"
     inkscape:connector-curvature="0"
     id="path3037"
     d="m 405,766.99782 v 88 h 90 v -90 h -90 v 1 1 z" />
  <path
     style="opacity:0.5;fill:none;stroke:#000000"
     inkscape:connector-curvature="0"
     id="path3039"
     d="m 120.18,448.35782 101.45,-138.5 164.74,53.566 0.0522,173.25 -164.89,53.618 z" />
</svg>
