<svg xmlns:rdf="http://www.w3.org/1999/02/22-rdf-syntax-ns#" xmlns="http://www.w3.org/2000/svg" height="180" width="360" version="1.1" xmlns:cc="http://creativecommons.org/ns#" xmlns:dc="http://purl.org/dc/elements/1.1/">
 <metadata>
  <rdf:RDF>
   <cc:Work rdf:about="">
    <dc:format>image/svg+xml</dc:format>
    <dc:type rdf:resource="http://purl.org/dc/dcmitype/StillImage"/>
    <dc:title/>
   </cc:Work>
  </rdf:RDF>
 </metadata>
 <path fill="#ff80bc" d="m123.75,0,112.5,0,0,180-112.5,0z"/>
 <path fill="#ffdd80" d="m0,0,112.5,0,0,180-112.5,0z"/>
 <path fill="#80efff" d="m247.5,0.00008,112.5,0,0,180-112.5,0z"/>
 <path d="m0,0.00006,33.75,0.00004,0,73.125,45,0,0-73.125,33.75-0.00004,0,180-33.75,0,0-73.125-45,0,0,73.125-33.75,0z" fill="#333"/>
 <path d="m180,0.0001c-28.125,0-56.25,22.5-56.25,56.25v123.75h33.75v-73.125h45v73.125h33.75v-123.75c0-33.75-29.73-56.25-56.25-56.25zm0,33.75c12.426,0,22.5,10.074,22.5,22.5v16.875h-45v-16.875c0-12.426,10.074-22.5,22.5-22.5z" fill="#333"/>
 <path d="m300.94,0.00004c-29.513,0-53.438,23.925-53.438,53.438s23.925,53.438,53.438,53.438h5.625c10.873,0,19.688,8.8144,19.688,19.688,0,10.873-8.8144,19.688-19.688,19.688h-59.062v33.75h59.062c29.513,0,53.438-23.925,53.438-53.438s-23.925-53.438-53.438-53.438h-5.625c-10.873,0-19.688-8.8144-19.688-19.688,0-10.873,8.8144-19.688,19.688-19.688h59.062v-33.75h-59.062z" fill="#333"/>
</svg>
