<svg xmlns:rdf="http://www.w3.org/1999/02/22-rdf-syntax-ns#" xmlns="http://www.w3.org/2000/svg" height="161.81" width="323.17" version="1.1" xmlns:cc="http://creativecommons.org/ns#" xmlns:dc="http://purl.org/dc/elements/1.1/">
 <metadata>
  <rdf:RDF>
   <cc:Work rdf:about="">
    <dc:format>image/svg+xml</dc:format>
    <dc:type rdf:resource="http://purl.org/dc/dcmitype/StillImage"/>
    <dc:title/>
   </cc:Work>
  </rdf:RDF>
 </metadata>
 <path fill="#ffdd80" d="m0,0.00302,100,0,0,161.8-100,0z"/>
 <path fill="#ff80bc" d="m111.58,0.00302,100,0,0,161.8-100,0z"/>
 <path fill="#80efff" d="m223.17,0.003,100,0,0,161.8-100,0z"/>
 <path fill="#333" d="m0,0.00302,0,161.8,29.562,0,0-66.103,40.875,0,0,66.103,29.562,0,0-161.8-29.562,0,0,66.103-40.875,0v-66.1h-29.562z"/>
 <path fill="#333" d="m161.59,0.00302c-27.618,0-50.007,22.389-50.007,50.007v111.8h29.566v-66.103h40.88v66.103h29.565v-111.8c0-27.621-22.39-50.01-50.01-50.01zm0,29.566c11.289,0,20.44,9.1514,20.44,20.44v16.096h-40.88v-16.096c0-11.252,9.2288-20.44,20.44-20.44z"/>
 <path fill="#333" d="m271.01,0c-26.422,0-47.844,21.421-47.844,47.841s21.422,47.841,47.844,47.841h4.3124c10.096,0,18.281,8.1849,18.281,18.28s-8.1854,18.28-18.281,18.28h-52.156v29.561h52.156c26.422,0,47.844-21.421,47.844-47.841s-21.422-47.841-47.844-47.841h-4.3124c-10.096,0-18.281-8.1849-18.281-18.28s8.1854-18.28,18.281-18.28h52.156v-29.559h-52.156z"/>
</svg>
