<!-- Created with Inkscape (http://www.inkscape.org/) -->
<svg xmlns:rdf="http://www.w3.org/1999/02/22-rdf-syntax-ns#" xmlns="http://www.w3.org/2000/svg" height="78.738" width="78.738" version="1.1" xmlns:cc="http://creativecommons.org/ns#" xmlns:dc="http://purl.org/dc/elements/1.1/">
 <path stroke-linejoin="miter" d="m10.727,49.437s10.618-5.4295,14.618-9.6933c3.2002-3.4109,5.6759-7.6766,6.9937-12.164,1.7329-5.9014,0.91211-18.429,0.91211-18.429" stroke="#EEE" stroke-linecap="butt" stroke-dasharray="none" stroke-miterlimit="3.5969286" stroke-width="0.17398392" fill="none"/>
 <path stroke-linejoin="miter" d="m16.515,59.856s9.4729-6.5121,15.862-8.1015c4.4658-1.1109,9.3833-1.2921,13.806-0.01935,7.7367,2.2266,16.23,8.2868,16.23,8.2868" stroke="#EEE" stroke-linecap="butt" stroke-dasharray="none" stroke-miterlimit="3.5969286" stroke-width="0.17398392" fill="none"/>
 <path stroke-linejoin="miter" d="m45.518,9.0767s-0.94059,12.774,0.73961,18.543c1.2983,4.4576,3.3926,9.0719,6.9248,12.085,4.9254,4.2016,10.109,7.215,10.109,7.215" stroke="#EEE" stroke-linecap="butt" stroke-dasharray="none" stroke-miterlimit="3.5969286" stroke-width="0.17398392" fill="none"/>
 <path stroke-linejoin="miter" d="m18.065,61.48s9.9138-5.597,15.399-6.7457c3.7842-0.79252,7.8159-0.79825,11.599,0,5.611,1.184,15.737,6.9507,15.737,6.9507" stroke="#EEE" stroke-linecap="butt" stroke-dasharray="none" stroke-miterlimit="3.5969286" stroke-width="0.17398392" fill="none"/>
 <path stroke-linejoin="miter" d="m62.816,43.455s-5.3811-3.6251-7.46-6.0638c-2.509-2.942-4.602-6.369-5.8-10.045-1.837-5.636-1.894-17.683-1.894-17.683" stroke="#EEE" stroke-linecap="butt" stroke-dasharray="none" stroke-miterlimit="3.5969286" stroke-width="0.17398392" fill="none"/>
 <path stroke-linejoin="miter" d="m30.864,9.8422s-0.07089,11.926-1.8929,17.505c-1.2003,3.6753-3.2263,7.1593-5.7995,10.045-3.6052,4.0429-13.054,9.6781-13.054,9.6781" stroke="#EEE" stroke-linecap="butt" stroke-dasharray="none" stroke-miterlimit="3.5969286" stroke-width="0.17398392" fill="none"/>
 <path d="m78.65,39.567a39.282,39.282,0,0,1,-78.563,0,39.282,39.282,0,1,1,78.563,0z" stroke="#000" stroke-miterlimit="3.5969286" stroke-dasharray="none" stroke-width="0.17398392" fill="none"/>
 <path stroke-linejoin="miter" d="m11.093,50.579s7.576,5.9574,12.037,7.5464c5.8728,2.0918,12.661,4.343,18.558,2.3198,3.1031-1.0647,4.1045-5.343,6.9594-6.9594,2.7744-1.5708,6.7922-0.32482,9.2791-2.3198,2.6975-2.1638,4.6396-9.2791,4.6396-9.2791" stroke="#000" stroke-linecap="butt" stroke-dasharray="none" stroke-miterlimit="3.5969286" stroke-width="0.17398392" fill="none"/>
 <path stroke-linejoin="miter" d="m9.2715,38.501s4.7939,16.964,11.48,21.663c4.4732,3.1444,10.773,2.4715,16.238,2.3198,3.9414-0.1094,8.376-0.0485,11.599-2.3198,11.104-11.48,9.4695-31.509-2.3198-32.477,0,0,8.911-1.4093,13.919,6.9594,1.2556,2.0983,2.3198,6.9594,2.3198,6.9594" stroke="#000" stroke-linecap="butt" stroke-miterlimit="3.5969286" stroke-dasharray="none" stroke-width="0.17398392" fill="none"/>
 <path stroke-linejoin="miter" d="m9.6725,44.585s4.6378,1.2158,6.1669,2.8946c1.2353,1.3562,0.39663,4.0773,1.8641,5.1781,1.4277,1.0709,3.8371-0.62518,5.3438,0.3314,2.765,1.7555,1.6213,7.5629,4.7224,8.6163,2.4997,0.84914,4.6249-2.9037,7.2493-3.1897,3.4297-0.37378,6.9687,3.367,10.149,2.0298,3.6612-1.5393,2.6817-8.9034,6.5037-9.9834,2.544-0.71885,4.8465,4.6642,7.1665,3.3968,5.84-5.5911,1.9404-14.407-3.1925-17.115-6.5324-3.4459-9.2188,4.1874-9.2188,4.1874-1.113-8.273,7.696-13.298,17.126-10.014" stroke="#000" stroke-linecap="butt" stroke-miterlimit="3.5969286" stroke-dasharray="none" stroke-width="0.17398392" fill="none"/>
 <path d="m66.552,60.51a6.9595,6.9595,0,0,1,-13.919,0,6.9595,6.9595,0,1,1,13.919,0z" stroke="#000" stroke-miterlimit="3.5969286" stroke-dasharray="none" stroke-width="0.17398392" fill="none"/>
 <path d="m66.898,60.51a7.3031,7.3016,0,0,1,-14.606,0,7.3031,7.3016,0,1,1,14.606,0z" stroke="#000" stroke-miterlimit="3.5969286" stroke-dasharray="none" stroke-width="0.17398392" fill="none"/>
 <path d="m60.753,60.51a1.1504,1.1408,0,0,1,-2.3007,0,1.1504,1.1408,0,1,1,2.3007,0z" stroke="#000" stroke-miterlimit="3.5969286" stroke-dasharray="none" stroke-width="0.1739839" fill="none"/>
 <path d="m61.894,60.51a2.2912,2.2817,0,0,1,-4.5824,0,2.2912,2.2817,0,1,1,4.5824,0z" stroke="#000" stroke-miterlimit="3.5969286" stroke-dasharray="none" stroke-width="0.17398392" fill="none"/>
 <path stroke-linejoin="miter" d="m58.419,58.556-2.666-3.851" stroke="#000" stroke-linecap="butt" stroke-dasharray="none" stroke-miterlimit="3.5969286" stroke-width="0.17398392" fill="none"/>
 <path stroke-linejoin="miter" d="m57.681,53.816,1.2859,4.5007" stroke="#000" stroke-linecap="butt" stroke-dasharray="none" stroke-miterlimit="3.5969286" stroke-width="0.17398392" fill="none"/>
 <path stroke-linejoin="miter" d="m58.609,53.619,0.66177,4.6324" stroke="#000" stroke-linecap="butt" stroke-dasharray="none" stroke-miterlimit="3.5969286" stroke-width="0.17398392" fill="none"/>
 <path stroke-linejoin="miter" d="m63.674,66.147-2.659-3.841" stroke="#000" stroke-linecap="butt" stroke-dasharray="none" stroke-miterlimit="3.5969286" stroke-width="0.17398392" fill="none"/>
 <path stroke-linejoin="miter" d="m60.221,62.707,1.2845,4.4957" stroke="#000" stroke-linecap="butt" stroke-dasharray="none" stroke-miterlimit="3.5969286" stroke-width="0.17398392" fill="none"/>
 <path stroke-linejoin="miter" d="m59.916,62.77,0.6614,4.6298" stroke="#000" stroke-linecap="butt" stroke-dasharray="none" stroke-miterlimit="3.5969286" stroke-width="0.17398392" fill="none"/>
 <path d="m58.97,31.458a1.1803,6.3222,75.263,1,1,-12.054,3.4797,1.1803,6.3222,75.263,0,1,12.054,-3.4797z" stroke="#000" stroke-miterlimit="3.5969286" stroke-dasharray="none" stroke-width="0.17398392" fill="none"/>
 <path d="m59.269,31.371a1.2384,6.6345,75.263,1,1,-12.649,3.652,1.2384,6.6345,75.263,0,1,12.649,-3.652z" stroke="#000" stroke-miterlimit="3.5969286" stroke-dasharray="none" stroke-width="0.1739839" fill="none"/>
 <path d="m53.948,32.908a0.19351,1.0449,75.24,1,1,-1.9925,0.57517,0.19351,1.0449,75.24,0,1,1.9925,-0.57517z" stroke="#000" stroke-miterlimit="3.5969286" stroke-dasharray="none" stroke-width="0.1739839" fill="none"/>
 <path d="m54.936,32.622a0.387,2.0813,75.252,1,1,-3.9685,1.1456,0.387,2.0813,75.252,0,1,3.9685,-1.1456z" stroke="#000" stroke-miterlimit="3.5969286" stroke-dasharray="none" stroke-width="0.17398389" fill="none"/>
 <path stroke-linejoin="miter" d="m51.626,33.23-2.9021,0.15267" stroke="#000" stroke-linecap="butt" stroke-dasharray="none" stroke-miterlimit="3.5969286" stroke-width="0.17398392" fill="none"/>
 <path stroke-linejoin="miter" d="m50.256,32.783,1.8071,0.27906" stroke="#000" stroke-linecap="butt" stroke-dasharray="none" stroke-miterlimit="3.5969286" stroke-width="0.17398392" fill="none"/>
 <path stroke-linejoin="miter" d="m51.029,32.524,1.2868,0.45267" stroke="#000" stroke-linecap="butt" stroke-dasharray="none" stroke-miterlimit="3.5969286" stroke-width="0.17398392" fill="none"/>
 <path stroke-linejoin="miter" d="m57.347,32.929-2.8947,0.15228" stroke="#000" stroke-linecap="butt" stroke-dasharray="none" stroke-miterlimit="3.5969286" stroke-width="0.17398392" fill="none"/>
 <path stroke-linejoin="miter" d="m53.826,33.334,1.8051,0.27875" stroke="#000" stroke-linecap="butt" stroke-dasharray="none" stroke-miterlimit="3.5969286" stroke-width="0.17398392" fill="none"/>
 <path stroke-linejoin="miter" d="m53.571,33.418,1.2861,0.45241" stroke="#000" stroke-linecap="butt" stroke-dasharray="none" stroke-miterlimit="3.5969286" stroke-width="0.17398392" fill="none"/>
 <path d="m15.645,45.483a6.5547,2.8615,76.656,1,1,4.286,12.054,6.5547,2.8615,76.656,0,1,-4.286,-12.054z" stroke="#000" stroke-miterlimit="3.5969286" stroke-dasharray="none" stroke-width="0.17398392" fill="none"/>
 <path d="m15.539,45.184a6.8784,3.0022,76.654,1,1,4.497,12.65,6.8784,3.0022,76.654,0,1,-4.497,-12.65z" stroke="#000" stroke-miterlimit="3.5969286" stroke-dasharray="none" stroke-width="0.17398393" fill="none"/>
 <path d="m17.431,50.506a1.083,0.46931,76.537,1,1,0.70847,1.9925,1.083,0.46931,76.537,0,1,-0.70847,-1.9925z" stroke="#000" stroke-miterlimit="3.5969286" stroke-dasharray="none" stroke-width="0.17398389" fill="none"/>
 <path d="m17.079,49.518a2.1576,0.93843,76.596,0,1,1.412,3.968,2.1576,0.93843,76.596,0,1,-1.412,-3.968z" stroke="#000" stroke-miterlimit="3.5969286" stroke-dasharray="none" stroke-width="0.17398392" fill="none"/>
 <path stroke-linejoin="miter" d="m17.494,53.141-0.47054,3.5195" stroke="#000" stroke-linecap="butt" stroke-dasharray="none" stroke-miterlimit="3.5969286" stroke-width="0.17398392" fill="none"/>
 <path stroke-linejoin="miter" d="m16.132,55.271,1.1135-2.5286" stroke="#000" stroke-linecap="butt" stroke-dasharray="none" stroke-miterlimit="3.5969286" stroke-width="0.17398392" fill="none"/>
 <path stroke-linejoin="miter" d="m15.78,54.529,1.35-2.03" stroke="#000" stroke-linecap="butt" stroke-dasharray="none" stroke-miterlimit="3.5969286" stroke-width="0.17398392" fill="none"/>
 <path stroke-linejoin="miter" d="m18.422,46.203-0.47,3.511" stroke="#000" stroke-linecap="butt" stroke-dasharray="none" stroke-miterlimit="3.5969286" stroke-width="0.17398392" fill="none"/>
 <path stroke-linejoin="miter" d="m18.332,50.275,1.1122-2.5258" stroke="#000" stroke-linecap="butt" stroke-dasharray="none" stroke-miterlimit="3.5969286" stroke-width="0.17398392" fill="none"/>
 <path stroke-linejoin="miter" d="m18.447,50.52,1.349-2.029" stroke="#000" stroke-linecap="butt" stroke-dasharray="none" stroke-miterlimit="3.5969286" stroke-width="0.17398392" fill="none"/>
 <path stroke-linejoin="miter" d="m37.019,62.135,0.5608-2.7267s0.2804-1.3633-2.4463-1.9241-3.0071,0.80254-3.0071,0.80254l-0.5608,2.7267z" stroke="#000" stroke-linecap="butt" stroke-dasharray="none" stroke-miterlimit="3.5969286" stroke-width="0.17398392" fill="none"/>
 <path stroke-linejoin="miter" d="m35.476,69.637-0.5608,2.7267s-0.2804,1.3633-3.0071,0.80254c-2.7267-0.5608-2.4463-1.9241-2.4463-1.9241l0.5608-2.7267z" stroke="#000" stroke-linecap="butt" stroke-dasharray="none" stroke-miterlimit="3.5969286" stroke-width="0.17398392" fill="none"/>
 <path stroke-linejoin="miter" d="m36.197,62.677-4.09-0.84119-1.2618,6.135,4.09,0.84119z" stroke="#000" stroke-linecap="butt" stroke-dasharray="none" stroke-miterlimit="3.5969286" stroke-width="0.17398392" fill="none"/>
 <path stroke-linejoin="miter" d="m37.019,62.135-1.5422,7.4983" stroke="#000" stroke-linecap="butt" stroke-dasharray="none" stroke-miterlimit="3.5969286" stroke-width="0.17398392" fill="none"/>
 <path stroke-linejoin="miter" d="m31.565,61.014-1.5422,7.4983" stroke="#000" stroke-linecap="butt" stroke-dasharray="none" stroke-miterlimit="3.5969286" stroke-width="0.17398392" fill="none"/>
 <path stroke-linejoin="miter" d="m30.502,55.822-3.505,17.045,10.225,2.1,3.505-17.042-10.225-2.103" stroke="#000" stroke-linecap="butt" stroke-dasharray="none" stroke-miterlimit="3.5969286" stroke-width="0.17398392" fill="none"/>
 <path stroke-linejoin="miter" d="m38.682,57.504-0.05608,0.27267,1.3633,0.2804-3.3928,16.496-1.3633-0.2804-0.05608,0.27267" stroke="#000" stroke-linecap="butt" stroke-dasharray="none" stroke-miterlimit="3.5969286" stroke-width="0.17398392" fill="none"/>
 <path d="m34.152,62.256a0.69594,0.69594,0,0,1,0.28,-1.363,0.69594,0.69594,0,0,1,-0.28,1.363z" stroke="#000" stroke-miterlimit="3.5969286" stroke-dasharray="none" stroke-width="0.17398392" fill="none"/>
 <path d="m33.591,64.983a3.4797,3.4797,0,0,1,1.402,-6.8167,3.4797,3.4797,0,0,1,-1.402,6.8167z" stroke="#000" stroke-miterlimit="3.5969286" stroke-dasharray="none" stroke-width="0.17398392" fill="none"/>
 <path d="m33.871,63.62a2.0878,2.0878,0,1,1,0.841,-4.09,2.0878,2.0878,0,1,1,-0.841,4.09z" stroke="#000" stroke-miterlimit="3.5969286" stroke-dasharray="none" stroke-width="0.17398392" fill="none"/>
 <path stroke-linejoin="miter" d="m33.984,59.509,4.417-0.64176" stroke="#000" stroke-linecap="butt" stroke-dasharray="none" stroke-miterlimit="3.5969286" stroke-width="0.17398392" fill="none"/>
 <path d="m32.609,69.757a0.69594,0.69594,0,0,1,0.2804,-1.3633,0.69594,0.69594,0,0,1,-0.2804,1.3633z" stroke="#000" stroke-miterlimit="3.5969286" stroke-dasharray="none" stroke-width="0.17398392" fill="none"/>
 <path d="m32.049,72.477a3.4797,3.4797,0,1,1,1.402,-6.8167,3.4797,3.4797,0,0,1,-1.402,6.8167z" stroke="#000" stroke-miterlimit="3.5969286" stroke-dasharray="none" stroke-width="0.17398392" fill="none"/>
 <path d="m32.469,70.437a1.3919,1.3919,0,0,1,0.5608,-2.7267,1.3919,1.3919,0,1,1,-0.5608,2.7267z" stroke="#000" stroke-miterlimit="3.5969286" stroke-dasharray="none" stroke-width="0.17398392" fill="none"/>
 <path stroke-linejoin="miter" d="m31.913,70.187,3.5445,2.9969" stroke="#000" stroke-linecap="butt" stroke-dasharray="none" stroke-miterlimit="3.5969286" stroke-width="0.17398392" fill="none"/>
 <path stroke-linejoin="miter" d="m25.17,56.743-1.0058-1.7421s-0.50289-0.87103-2.245,0.13475-1.2392,1.8768-1.2392,1.8768l1.0058,1.7421z" stroke="#000" stroke-linecap="butt" stroke-dasharray="none" stroke-miterlimit="3.5969286" stroke-width="0.17398392" fill="none"/>
 <path stroke-linejoin="miter" d="m25.973,59.241-0.98737-1.8108-2.6131,1.5087,1.1605,1.9376" stroke="#000" stroke-linecap="butt" stroke-dasharray="none" stroke-miterlimit="3.5969286" stroke-width="0.17398392" fill="none"/>
 <path stroke-linejoin="miter" d="m25.17,56.743,1.4903,2.6818" stroke="#000" stroke-linecap="butt" stroke-dasharray="none" stroke-miterlimit="3.5969286" stroke-width="0.17398392" fill="none"/>
 <path stroke-linejoin="miter" d="m21.686,58.754,1.2388,2.2463" stroke="#000" stroke-linecap="butt" stroke-dasharray="none" stroke-miterlimit="3.5969286" stroke-width="0.17398392" fill="none"/>
 <path stroke-linejoin="miter" d="m23.845,53.443,0.10058,0.17421,0.87103-0.50289,2.8013,4.8596" stroke="#000" stroke-linecap="butt" stroke-dasharray="none" stroke-miterlimit="3.5969286" stroke-width="0.17398392" fill="none"/>
 <path d="m23.679,58.184a0.50289,0.50289,0,1,1,-0.50289,-0.87103,0.50289,0.50289,0,0,1,0.50289,0.87103z" stroke="#000" stroke-miterlimit="3.5969286" stroke-dasharray="none" stroke-width="0.17398392" fill="none"/>
 <path d="m24.685,59.926a2.5145,2.5145,0,1,1,-2.5145,-4.3552,2.5145,2.5145,0,0,1,2.5145,4.3552z" stroke="#000" stroke-miterlimit="3.5969286" stroke-dasharray="none" stroke-width="0.17398392" fill="none"/>
 <path d="m24.182,59.055a1.5087,1.5087,0,1,1,-1.5087,-2.6131,1.5087,1.5087,0,1,1,1.5087,2.6131z" stroke="#000" stroke-miterlimit="3.5969286" stroke-dasharray="none" stroke-width="0.17398392" fill="none"/>
 <path stroke-linejoin="miter" d="m22.27,56.781,2.078-2.4667" stroke="#000" stroke-linecap="butt" stroke-dasharray="none" stroke-miterlimit="3.5969286" stroke-width="0.17398392" fill="none"/>
 <path stroke-linejoin="miter" d="m22.121,62.626,0.1167-1.8094,0.50289,0.87103,0.18407-0.68696,1.558-0.31882-0.25145-0.43552,1.1225-0.06737,0.61959-0.93841,0.68696,0.18407,0.1167-1.8094,0.50289,0.87103,0.61959-0.93841m-9.2802-1.0877,3.5018,6.1659m5.7784-5.0782-2.7475-4.8594-6.5327,3.7717" stroke="#000" stroke-linecap="butt" stroke-dasharray="none" stroke-miterlimit="3.5969286" stroke-width="0.17398392" fill="none"/>
 <path stroke-linejoin="miter" d="m42.041,51.705,1.7589-1.0155s0.87945-0.50775,1.895,1.2511c1.0155,1.7589,0.13605,2.2667,0.13605,2.2667l-1.7589,1.0155z" stroke="#000" stroke-linecap="butt" stroke-dasharray="none" stroke-miterlimit="3.5969286" stroke-width="0.17398392" fill="none"/>
 <path stroke-linejoin="miter" d="m41.385,56.192,1.9927-1.1544-1.5233-2.6384-2.1293,1.288" stroke="#000" stroke-linecap="butt" stroke-dasharray="none" stroke-miterlimit="3.5969286" stroke-width="0.17398392" fill="none"/>
 <path stroke-linejoin="miter" d="m39.911,52.993,2.13-1.288" stroke="#000" stroke-linecap="butt" stroke-dasharray="none" stroke-miterlimit="3.5969286" stroke-width="0.17398392" fill="none"/>
 <path stroke-linejoin="miter" d="m41.503,56.765,2.569-1.5418" stroke="#000" stroke-linecap="butt" stroke-dasharray="none" stroke-miterlimit="3.5969286" stroke-width="0.17398392" fill="none"/>
 <path stroke-linejoin="miter" d="m38.445,52.025,5.7361-3.3146,0.50775,0.87945,0.17589-0.10155" stroke="#000" stroke-linecap="butt" stroke-dasharray="none" stroke-miterlimit="3.5969286" stroke-width="0.17398392" fill="none"/>
 <path d="m43.496,53.21a0.50775,0.50775,0,1,1,-0.87945,0.50775,0.50775,0.50775,0,0,1,0.87945,-0.50775z" stroke="#000" stroke-miterlimit="3.5969286" stroke-dasharray="none" stroke-width="0.17398392" fill="none"/>
 <path d="m45.255,52.195a2.5388,2.5388,0,0,1,-4.3973,2.5388,2.5388,2.5388,0,1,1,4.3973,-2.5388z" stroke="#000" stroke-miterlimit="3.5969286" stroke-dasharray="none" stroke-width="0.17398392" fill="none"/>
 <path d="m43.935,52.957a1.0155,1.0155,0,0,1,-1.7589,1.0155,1.0155,1.0155,0,1,1,1.7589,-1.0155z" stroke="#000" stroke-miterlimit="3.5969286" stroke-dasharray="none" stroke-width="0.17398392" fill="none"/>
 <path stroke-linejoin="miter" d="m44.068,53.382-0.083-3.386" stroke="#000" stroke-linecap="butt" stroke-dasharray="none" stroke-miterlimit="3.5969286" stroke-width="0.17398392" fill="none"/>
 <path stroke-linejoin="miter" d="m43.144,57.576-1.8269-0.11782,0.87945-0.50775-0.6936-0.18585-0.3219-1.5731-0.43973,0.25388-0.06803-1.1333-0.94748-0.62558,0.18585-0.6936-1.8269-0.11782,0.87945-0.50775-0.94748-0.62558m5.1273,5.8342,4.7676-2.8112-3.8081-6.5959-6.0868,3.5728" stroke="#000" stroke-linecap="butt" stroke-dasharray="none" stroke-miterlimit="3.5969286" stroke-width="0.17398392" fill="none"/>
 <path stroke-linejoin="miter" d="m41.411,56.634c-0.58634,0.57178-1.0135-0.66968-1.6583-0.39573-0.62249,0.24189-1.5925,0.52785-1.8621-0.40608-0.17686-0.29714-0.21271-1.5048-0.57327-0.67764-0.29724,0.75412-0.84731,1.315-1.6375,1.1375-0.62316-0.07605-1.43,0.02701-1.8848-0.51809-0.24944-1.0255-0.0029-2.1079,0.21531-3.1162,0.19351-0.61636,0.32552-1.3967,0.87461-1.7465,0.39288,0.34895,0.22922,1.2304,0.25451,1.7983-0.06609,0.6628-0.11096,1.5446-0.73367,1.8662-0.84924,0.25057-0.86314-0.79046-0.82582-1.4232-0.04728-1.4301,0.07266-2.903-0.2928-4.2931-0.32571-1.0189-1.1627,0.04683-1.4356,0.55331-1.4623,2.2839-1.5626,5.2432-2.8842,7.6019-0.63817,1.0038-1.7134,1.9758-2.8965,1.7017-0.23229,0.0678,0.57448,0.50001,0.83811,0.31737,1.4208-0.22674,2.4183-1.6219,2.9015-3.0241,0.86673-2.2859,1.1436-4.9243,2.6692-6.847,0.32002-0.69607,1.123-0.52504,1.1353,0.26345,0.32962,1.6878,0.09678,3.4312,0.28459,5.1325,0.42457,0.69728,1.3323,0.10736,1.3554-0.63445,0.18121-0.87942,0.21866-1.8257,0.0026-2.6997-0.58448-0.02425-0.75464,0.98397-0.94607,1.5026-0.25485,1.0381-0.49106,2.1425-0.30349,3.2166,0.32906,0.66351,1.2109,0.51632,1.8027,0.61816,0.75073,0.14749,1.4193-0.20745,1.6834-1.0183,0.13308-0.27499,0.4075-0.70555,0.43923-0.11667,0.10019,0.7161,0.57263,1.6167,1.3525,1.295,0.63575-0.34311,1.3454-0.26396,1.846,0.30045,0.37231,0.14231,0.70906-0.08629,0.27917-0.38837z" stroke="#000" stroke-linecap="butt" stroke-dasharray="none" stroke-miterlimit="3.5969286" stroke-width="0.17398392" fill="none"/>
 <path stroke-linejoin="miter" d="m42.613,67.416,4.4549,1.296,2.592-8.9098-4.4549-1.296z" stroke="#000" stroke-linecap="butt" stroke-dasharray="none" stroke-miterlimit="3.5969286" stroke-width="0.17398392" fill="none"/>
 <path stroke-linejoin="miter" d="m48.991,59.608,0.648-2.2274-3.1184-0.9072-0.648,2.2274" stroke="#000" stroke-linecap="butt" stroke-dasharray="none" stroke-miterlimit="3.5969286" stroke-width="0.17398392" fill="none"/>
 <path stroke-linejoin="miter" d="m48.564,59,0.1296-0.44549-0.22274-0.0648-0.1296,0.44549z" stroke="#000" stroke-linecap="butt" stroke-dasharray="none" stroke-miterlimit="3.5969286" stroke-width="0.17398392" fill="none"/>
 <path stroke-linejoin="miter" d="m46.782,58.482,0.1296-0.44549-0.22274-0.0648-0.1296,0.44549z" stroke="#000" stroke-linecap="butt" stroke-dasharray="none" stroke-miterlimit="3.5969286" stroke-width="0.17398392" fill="none"/>
 <path stroke-linejoin="miter" d="m6.5625,43.884-1.2071,2.9977,5.9955,2.4142,1.2071-2.9977z" stroke="#000" stroke-linecap="butt" stroke-dasharray="none" stroke-miterlimit="3.5969286" stroke-width="0.1739839" fill="none"/>
 <path stroke-linejoin="miter" d="m11.531,48.847,1.4989,0.60355,0.84497-2.0984-1.4989-0.60355" stroke="#000" stroke-linecap="butt" stroke-dasharray="none" stroke-miterlimit="3.5969286" stroke-width="0.1739839" fill="none"/>
 <path stroke-linejoin="miter" d="m11.982,48.593,0.29977,0.12071,0.06036-0.14989-0.29977-0.12071z" stroke="#000" stroke-linecap="butt" stroke-dasharray="none" stroke-miterlimit="3.5969286" stroke-width="0.1739839" fill="none"/>
 <path stroke-linejoin="miter" d="m12.465,47.393,0.29977,0.12071,0.06036-0.14989-0.29977-0.12071z" stroke="#000" stroke-linecap="butt" stroke-dasharray="none" stroke-miterlimit="3.5969286" stroke-width="0.1739839" fill="none"/>
 <path stroke-linejoin="miter" d="m64.348,41.044-0.82183-3.1254-6.2508,1.6437,0.82183,3.1254z" stroke="#000" stroke-linecap="butt" stroke-dasharray="none" stroke-miterlimit="3.5969286" stroke-width="0.1739839" fill="none"/>
 <path stroke-linejoin="miter" d="m57.399,40.031-1.5627,0.41091,0.57528,2.1878,1.5627-0.41091" stroke="#000" stroke-linecap="butt" stroke-dasharray="none" stroke-miterlimit="3.5969286" stroke-width="0.1739839" fill="none"/>
 <path stroke-linejoin="miter" d="m57.189,40.504-0.31254,0.08218,0.04109,0.15627,0.31254-0.08218z" stroke="#000" stroke-linecap="butt" stroke-dasharray="none" stroke-miterlimit="3.5969286" stroke-width="0.1739839" fill="none"/>
 <path stroke-linejoin="miter" d="m57.518,41.754-0.31254,0.08218,0.04109,0.15627,0.31254-0.08218z" stroke="#000" stroke-linecap="butt" stroke-dasharray="none" stroke-miterlimit="3.5969286" stroke-width="0.1739839" fill="none"/>
 <path stroke-linejoin="miter" d="m51.239,46.33-1.8895-0.62817s-0.94474-0.31408-1.5729,1.5754c-0.62817,1.8895,0.31657,2.2036,0.31657,2.2036l1.8895,0.62817z" stroke="#000" stroke-linecap="butt" stroke-dasharray="none" stroke-miterlimit="3.5969286" stroke-width="0.1739839" fill="none"/>
 <path stroke-linejoin="miter" d="m56.435,48.057,1.8895,0.62817s0.94474,0.31408,0.31657,2.2036-1.5729,1.5754-1.5729,1.5754l-1.889-0.628z" stroke="#000" stroke-linecap="butt" stroke-dasharray="none" stroke-miterlimit="3.5969286" stroke-width="0.1739839" fill="none"/>
 <path stroke-linejoin="miter" d="m51.554,46.959-0.94226,2.8342,4.2513,1.4134,0.94226-2.8342z" stroke="#000" stroke-linecap="butt" stroke-dasharray="none" stroke-miterlimit="3.5969286" stroke-width="0.1739839" fill="none"/>
 <path stroke-linejoin="miter" d="m51.239,46.33,5.1961,1.7275" stroke="#000" stroke-linecap="butt" stroke-dasharray="none" stroke-miterlimit="3.5969286" stroke-width="0.1739839" fill="none"/>
 <path stroke-linejoin="miter" d="m49.983,50.109,5.1961,1.7275" stroke="#000" stroke-linecap="butt" stroke-dasharray="none" stroke-miterlimit="3.5969286" stroke-width="0.1739839" fill="none"/>
 <path stroke-linejoin="miter" d="m46.205,50.426,11.809,3.9261,2.3556-7.0855-11.809-3.9261-2.3556,7.0855" stroke="#000" stroke-linecap="butt" stroke-dasharray="none" stroke-miterlimit="3.5969286" stroke-width="0.1739839" fill="none"/>
 <path stroke-linejoin="miter" d="m48.089,44.758,0.18895,0.06282,0.31408-0.94474,11.431,3.8004-0.31409,0.94474,0.18895,0.06282" stroke="#000" stroke-linecap="butt" stroke-dasharray="none" stroke-miterlimit="3.5969286" stroke-width="0.1739839" fill="none"/>
 <path d="m51.083,48.376a0.49779,0.49779,0,0,1,-0.94474,-0.31408,0.49779,0.49779,0,1,1,0.94474,0.31408z" stroke="#000" stroke-miterlimit="3.5969286" stroke-dasharray="none" stroke-width="0.1739839" fill="none"/>
 <path d="m52.973,49.004a2.489,2.489,0,0,1,-4.724,-1.57,2.489,2.489,0,1,1,4.724,1.57z" stroke="#000" stroke-miterlimit="3.5969286" stroke-dasharray="none" stroke-width="0.1739839" fill="none"/>
 <path d="m52.028,48.69a1.4934,1.4934,0,1,1,-2.8342,-0.94226,1.4934,1.4934,0,1,1,2.8342,0.94226z" stroke="#000" stroke-miterlimit="3.5969286" stroke-dasharray="none" stroke-width="0.1739839" fill="none"/>
 <path stroke-linejoin="miter" d="m49.118,48.263-0.08351-3.1915" stroke="#000" stroke-linecap="butt" stroke-dasharray="none" stroke-miterlimit="3.5969286" stroke-width="0.1739839" fill="none"/>
 <path d="m56.279,50.104a0.49779,0.49779,0,0,1,-0.94474,-0.31408,0.49779,0.49779,0,0,1,0.94474,0.31408z" stroke="#000" stroke-miterlimit="3.5969286" stroke-dasharray="none" stroke-width="0.1739839" fill="none"/>
 <path d="m58.169,50.732a2.489,2.489,0,1,1,-4.7237,-1.5704,2.489,2.489,0,0,1,4.7237,1.5704z" stroke="#000" stroke-miterlimit="3.5969286" stroke-dasharray="none" stroke-width="0.1739839" fill="none"/>
 <path d="m56.752,50.261a0.99559,0.99559,0,1,1,-1.8895,-0.62817,0.99559,0.99559,0,0,1,1.8895,0.62817z" stroke="#000" stroke-miterlimit="3.5969286" stroke-dasharray="none" stroke-width="0.1739839" fill="none"/>
 <path stroke-linejoin="miter" d="m56.526,50.635,2.428-2.265" stroke="#000" stroke-linecap="butt" stroke-dasharray="none" stroke-miterlimit="3.5969286" stroke-width="0.1739839" fill="none"/>
 <path d="m39.369,2.7957c-20.309,0-36.769,16.467-36.769,36.776s16.46,36.769,36.769,36.769,36.769-16.46,36.769-36.769-16.46-36.776-36.769-36.776zm0.16674,5.5675c10.187,0,21.309,6.6151,26.402,15.601-4.3995,8.9161-4.3995,22.292,0,31.208-5.0932,8.9855-16.216,15.601-26.402,15.601-10.187,0-21.302-6.6151-26.395-15.601-5.0932-8.9855-5.0932-22.223,0-31.208,5.0931-8.9855,16.208-15.601,26.395-15.601z" stroke="#000" stroke-miterlimit="3.5969286" stroke-dasharray="none" stroke-width="0.17398392" fill="#AAA"/>
 <path stroke-linejoin="miter" d="m67.206,23.329c-4.6396,9.2791-4.6396,23.198,0,32.477-5.3711,9.3513-17.095,16.239-27.837,16.239s-22.466-6.8872-27.837-16.239c-5.3711-9.3513-5.3711-23.126,0-32.477,5.3711-9.3513,17.095-16.238,27.837-16.238s22.466,6.8872,27.837,16.238z" stroke="#000" stroke-linecap="butt" stroke-dasharray="none" stroke-miterlimit="3.5969286" stroke-width="0.17398392" fill="none"/>
 <metadata>
  <rdf:RDF>
   <cc:Work rdf:about="">
    <dc:title/>
    <dc:format>image/svg+xml</dc:format>
    <dc:type rdf:resource="http://purl.org/dc/dcmitype/StillImage"/>
   </cc:Work>
  </rdf:RDF>
 </metadata>
</svg>
