<!-- Created with Inkscape (http://www.inkscape.org/) -->
<svg xmlns:rdf="http://www.w3.org/1999/02/22-rdf-syntax-ns#" xmlns="http://www.w3.org/2000/svg" height="290" width="290" version="1.1" xmlns:cc="http://creativecommons.org/ns#" xmlns:dc="http://purl.org/dc/elements/1.1/">
 <path fill="#424242" d="m145-0.00218c-80.081,0-145,64.919-145,145s64.919,145,145,145,145-64.919,145-145-64.919-145-145-145zm-51.25,29.281c-0.62163,3.1516-1.2606,10.304-0.84375,11.25,0.24304,0.55193,2.805,1.2398,5.7188,1.5625,2.8915,0.32024,5.56,0.88562,5.9375,1.25,0.3775,0.3644,1.1453,2.2734,1.7188,4.2188l1.0625,3.5312-3.7812,4.2812c-4.3566,4.9691-4.332,5.0969,0.8125,10.5l3.4062,3.5938,2.5-1.25c1.375-0.6798,3.8802-2.1041,5.5625-3.1875l3.0625-1.9688,3.7188,1.8438c2.0436,1.0109,3.8139,2.0632,3.9375,2.3438,0.12345,0.28058,0.23657,2.7017,0.28125,5.375,0.069,4.1262,0.27741,4.9168,1.3438,5.25,2.1447,0.67024,12.087,0.66717,12.719,0,0.32975-0.34797,0.93709-2.7746,1.375-5.4062l0.8125-4.7812,4.125-1.9062c0.83397,3.0493,1.3836,6.2166,1.625,9.4688-2.1354,4.386-4.5614,10.969-4.0938,12.031,0.27415,0.62249,2.7473,2.1318,5.5,3.375,0.21095,0.0953,0.36328,0.1595,0.5625,0.25,1.4723,4.7337,3.7786,9.0761,6.7812,12.875-0.57354,2.8239-2.2709,4.2424-6.6562,6.7188-2.8736,1.6227-5.4585,3.3803-5.75,3.9375-0.36938,0.70634,0.4407,3.2418,2.6875,8.3438,3.7767,8.5759,3.3188,8.3545,11.312,5.4375,2.9316-1.0698,5.9403-1.9045,6.6875-1.875,1.4205,0.0561,7.967,5.7363,8.8125,7.6562,0.26866,0.61008-0.28476,3.7031-1.25,6.875-1.0273,3.376-1.4999,6.3675-1.125,7.2188,0.44178,1.0032,2.873,2.201,7.8438,3.8438,3.9633,1.3098,7.6067,2.1939,8.0938,1.9688,0.48696-0.22522,2.3093-3.0652,4.0312-6.3125,1.7219-3.2474,3.6468-6.1448,4.2812-6.4375,1.7275-0.79683,9.0458-1.1404,11.219-0.53125,1.5377,0.43106,2.4298,1.4837,4.6562,5.5312,1.7339,3.1522,3.2676,5.2035,4.125,5.5,1.9288,0.66712,15.214-5.4297,16-7.3438,0.3273-0.79685-0.1691-3.4262-1.25-6.6562-0.19287-0.57636-0.36086-1.1515-0.53125-1.7188,11.26,10.94,18.24,26.21,18.24,43.1h-10v30h-180v-30h-10v-100c0-25.845,19.599-47.099,44.75-49.719zm22.594,2.8125c0.58566,0.21668,1.1749,0.44974,1.75,0.6875-0.20934,0.84098-0.36428,1.6676-0.4375,2.4062-0.44944,4.5343,3.2192,12.821,6.9062,15.562,5.3479,3.9765,11.146,4.9186,17.531,2.9062,0.34707,0.58921,0.70797,1.1769,1.0312,1.7812-6.8812,2.0862-14.671,1.0003-20.531-3.9688-4.2769-3.6263-7.0386-10.202-6.6875-15.969,0.0715-1.1747,0.20492-2.3079,0.4375-3.4062zm7.4688,3.5c5.8244,3.335,10.887,7.8169,14.938,13.125-0.39967,0.039-0.79615,0.0523-1.2188,0.0625-5.236,0.12625-11.189-3.2859-13.031-7.4688-0.67379-1.53-0.87513-3.5885-0.6875-5.7188zm-44.656,8c-0.29905,0.003-0.65078,0.0107-1.0312,0.0312-2.6289,0.14187-2.8537,0.25394-3.1875,1.6875-1.2816,5.5039-2.8292,6.5547-6.25,4.25-2.613-1.7604-2.4275-1.76-4.9062,0.59375-1.8374,1.7447-1.8499,1.7843-0.1875,4.4375,1.4723,2.3495,1.5681,2.9059,0.6875,4.3125-0.73637,1.1762-1.5009,1.6663-2.8438,1.7812-3.0388,0.26016-3.621,0.84384-3.4062,3.5,0.2261,2.7963,1.3529,3.7378,3.9375,3.375,1.0202-0.14323,1.6389,0.37677,2.3125,1.9062,0.75496,1.7143,0.64784,2.4568-0.59375,3.9688-1.6609,2.0225-1.5212,2.9754,0.71875,4.875,1.3286,1.1267,1.7109,1.0804,3.9688-0.375,2.0471-1.3198,2.8052-1.471,4.2812-0.875,1.5311,0.61821,1.8442,1.0958,2.0625,3.2188,0.24201,2.3546,0.36285,2.5078,2.5,2.5625,3.2958,0.0843,4.2241-0.58941,4.4375-3.1875,0.26869-3.2715,3.3175-4.6753,6.0312-2.7812,2.1325,1.4881,2.5764,1.4011,5.0938-0.9375,1.9491-1.8107,1.9476-1.7911-0.0625-4.125-1.2272-1.4249-1.2988-1.9706-0.53125-3.6875,0.77357-1.7305,1.2554-2.0864,3.4062-2.4688,2.4113-0.42868,2.534-0.57137,2.6562-3.0625,0.1681-3.424,0.10779-3.4895-2.7188-3.7188-3.4384-0.27887-4.7868-3.3277-2.6875-6.0938,1.6786-2.2115,1.6831-2.3308-0.78125-4.5-0.99071-0.87204-1.8912-1.5502-2-1.5-0.10878,0.0502-1.0784,0.81382-2.125,1.6875-1.6534,1.3801-2.1689,1.4782-4.0938,0.8125-1.86-0.64331-2.2255-1.0803-2.2812-2.6875-0.0882-2.5414-0.3129-3.0243-2.4062-3zm-1.4,12.6c0.30473-0.0235,0.62045-0.0134,0.9375,0,5.4784,0.23233,8.115,4.1738,6.0938,9.0938-1.8009,4.3837-4.8625,5.7687-9.3438,4.2188-2.959-1.0234-3.32-1.3772-4.0312-3.9062-1.3098-4.6574,1.7729-9.0541,6.3438-9.4062zm1.125,4.2812c-2.0752,0.009-4.2947,2.2352-3.5312,3.9688,0.44745,1.0161,3.0265,1.8817,4.125,1.375,1.0985-0.50669,2.1662-3.0465,1.7188-4.0625-0.18391-0.41757-0.82952-0.91471-1.4375-1.125-0.28151-0.0974-0.57854-0.15758-0.875-0.15625zm37.719,7.625c-0.0866-0.00068-0.173,0.0111-0.21875,0.0312-0.36599,0.16153-1.452,1.535-2.4375,3.0625-1.7345,2.6884-1.8962,2.766-4.4375,2.7812-2.3716,0.0143-2.7235-0.21632-3.7812-2.5938-0.644-1.4475-1.5359-2.8585-1.9688-3.125s-2.4269,0.15728-4.4375,0.9375l-3.6562,1.4062,0.625,3.3125c0.63462,3.2564,0.36134,4.1273-2.0625,6.2188-0.9414,0.81229-2.1022,0.81548-4.8125,0.0312l-3.5938-1.0312-1.625,3.5c-0.90151,1.918-1.5152,3.7441-1.375,4.0625,0.14031,0.31831,1.4003,1.2416,2.8125,2.0625,2.4498,1.424,2.553,1.6274,2.375,3.9062-0.24374,3.1209-0.67949,3.6879-3.9688,5.2188l-2.75,1.2812,0.96875,2.5312c0.53924,1.387,1.174,3.0165,1.4062,3.625,0.30688,0.80412,1.2887,0.93145,3.625,0.4375,4.979-1.0527,8.18,2.1348,6.3125,6.3125-1.2662,2.8327-0.72542,3.8699,2.7188,5.25,3.2403,1.2984,4.0033,1.0925,5.5-1.5938,1.3797-2.4762,2.3922-2.9379,5.6875-2.625,2.3398,0.22227,2.7898,0.54422,3.8438,2.9375,1.1672,2.6505,1.2351,2.6923,3.7812,1.9688,5.2016-1.4783,5.484-1.7506,4.7188-4.8438-0.88991-3.5973-0.56847-4.5911,2-6.375,1.8004-1.2505,2.4704-1.3088,5.125-0.4375l3.0625,1,1.9688-3.6875c1.1006-2.0817,1.6031-3.9001,1.1875-4.1875-0.40371-0.27914-1.6035-0.99386-2.6562-1.5938-3.9717-2.2632-3.6616-5.9357,0.6875-8.5312,1.5599-0.9309,2.8889-1.868,2.9688-2.0625,0.0802-0.19434-0.27888-1.8949-0.8125-3.7812-0.74334-2.6278-1.2105-3.4211-2-3.3438-0.56672,0.0556-2.268,0.43734-3.7812,0.8125-2.3379,0.57966-3.0259,0.37193-4.5625-1.2188-1.7388-1.8-1.7658-1.9834-0.65625-5.4062l1.1562-3.5625-3.25-1.5c-1.5593-0.71011-3.0816-1.1827-3.6875-1.1875zm-7.5312,9.75c2.5494,0.0253,5.0904,0.3195,5.3438,0.875,0.0856,0.18698-0.41046,1.6092-1.125,3.1562-2.6452,5.7272-3.1093,6.3278-4.7812,6.5625-1.5361,0.21563-1.7012-0.0248-3.2812-4.5625-0.91849-2.6378-1.5763-5.0195-1.4688-5.2812,0.22625-0.55075,2.7631-0.77527,5.3125-0.75zm-6.75,1.3438c0.56761-0.0822,0.68913,0.27921,0.8125,1.1562,0.12155,0.86404,0.88051,3.0066,1.6562,4.7812,1.172,2.681,1.2277,3.4793,0.3125,4.625-0.99624,1.2471-1.5559,1.1849-5.6875-0.53125-2.5124-1.0436-4.7317-2.2513-4.9375-2.6875-0.50927-1.0796,3.5985-5.4924,6.2812-6.75,0.72991-0.34214,1.2219-0.54441,1.5625-0.59375zm14.094,0.4375c1.372,0.1386,4.8339,3.6942,6.9375,7.125,0.18176,0.2954-1.9025,1.3246-4.8438,2.4062-4.9105,1.8058-6.4349,1.8403-7.2188,0.125-0.50178-1.098,4.0964-9.7602,5.125-9.6562zm-23.156,8.0625c0.58003-0.26757,9.5596,3.6673,9.8438,4.3125,0.10477,0.23807,0.0274,1.0502-0.1875,1.7812-0.31025,1.0552-1.4172,1.7014-5.3125,3.2188l-4.9062,1.9375-0.59375-2.375c-0.58795-2.349,0.21494-8.4408,1.1562-8.875zm29.5,1.125c1.4743,0.0419,1.603,1.3523,1.3438,4.5625-0.46127,5.7106-4.5751,11.94-9.3125,14.125-1.5647,0.72178-1.6524,0.62414-2.4688-2.3125-0.46747-1.6817-1.2332-3.96-1.7188-5.0625-0.68355-1.5522-0.59246-2.2412,0.40625-3.0625,1.0518-0.86504,2.2058-0.68943,6.25,0.9375,6.0756,2.4442,6.2574,1.8855,0.25-0.75-4.8432-2.1248-4.8358-2.1418-4.3125-4.0625,0.30523-1.1202,1.2459-1.6916,5.2188-3.1875,2.0698-0.7793,3.4592-1.2126,4.3438-1.1875zm-14.188,1.4688c1.9397,0.0766,3.1492,2.4321,2.3125,4.4688-0.78777,1.9177-1.8696,2.3536-3.9062,1.5312-3.453-1.3943-2.1919-6.1494,1.5938-6zm-5.4375,5.7812c2.116,0.0537,1.952,2.2178-0.4375,6.875l-2.4062,4.6562-1.75-0.90625c-1.5907-0.81849-4.9816-4.451-5.7188-6.125-0.31722-0.72032,4.3861-3.0497,8.5-4.2188,0.73337-0.20841,1.3242-0.29363,1.8125-0.28125zm3.9688,2.2188c0.15187-0.0203,0.32785-0.007,0.5,0,1.4878,0.0587,1.752,0.43869,3.25,4.9688,0.89468,2.7055,1.5818,5.0333,1.5312,5.1562-0.0514,0.12274-1.2912,0.42812-2.75,0.6875-2.6004,0.46228-7.7638-0.41304-8.1875-1.375-0.11807-0.26804,0.84837-2.513,2.1562-5,1.7737-3.3728,2.4369-4.2953,3.5-4.4375zm59.625,13.938c0.85892,0.57679,1.7519,1.146,2.6562,1.6562-0.12776,0.18281-0.26735,0.34942-0.4375,0.46875-1.2329,0.86461-2.9179-0.50857-2.3438-1.9062,0.0331-0.0805,0.081-0.14794,0.125-0.21875zm14.28,5.96c1.0797,0.2192,2.1719,0.40093,3.2812,0.53125,6.4911,4.9655,15.542,6.8675,24.844,3.75,0.89923,0.32017,1.7774,0.66998,2.6562,1.0312-1.1345,0.46551-2.2986,0.86874-3.5,1.1875-10.597,2.8116-20.611-0.108-27.281-6.5zm-7.5312,1.125c1.1144-0.0819,1.5926,0.696,1.0312,2.0625-0.58549,1.4253-2.3778,1.4442-3,0.0312-0.31813-0.72239-0.0786-1.3798,0.65625-1.7188,0.49931-0.23032,0.94103-0.34771,1.3125-0.375zm5.7812,5.6875c0.52695,0.0443,1.0632,0.47098,1.4062,1.25,0.33686,0.76491,0.0648,1.3886-0.71875,1.75-1.5706,0.72447-2.8955-0.52108-2.125-2,0.37444-0.71876,0.91055-1.0443,1.4375-1zm36.656,2.9375c0.42941-0.0438,0.71996,0.20788,1,0.84375,0.44803,1.0174,0.22207,1.4461-0.96875,1.8125-0.851,0.26188-1.713,0.0723-1.9375-0.4375-0.22457-0.50981,0.18217-1.3334,0.9375-1.8125,0.39631-0.25149,0.71111-0.37996,0.96875-0.40625zm-28.281,1.625c0.82892-0.0681,1.6918,0.34842,1.75,1.0938,0.0339,0.43415-0.39007,1.0836-0.9375,1.4688-1.2671,0.89087-2.9733-0.66001-2.0938-1.9062,0.28404-0.40247,0.7839-0.61542,1.2812-0.65625zm19.094,1.2188c1.1536-0.052,1.5777,0.84372,0.8125,2.3125-0.77113,1.4802-2.1803,1.3899-2.875-0.1875-0.33078-0.75115-0.089-1.4063,0.65625-1.75,0.53131-0.24508,1.0217-0.35768,1.4062-0.375zm-9.3125,0.625c0.67293-0.001,1.2854,0.36431,1.4375,1.0625,0.14091,0.64717-0.20982,1.5055-0.78125,1.9062-1.233,0.86461-2.918-0.50856-2.3438-1.9062,0.2871-0.69885,1.0146-1.0614,1.6875-1.0625z"/>
 <g font-size="30.45676041px" line-height="66.60000086%" transform="translate(-281,-298.36218)" font-family="Sans" style="letter-spacing:0px;word-spacing:0px;" font-style="normal" font-weight="normal" fill="#ff818a">
  <path d="m350,475.38,0-15.426,1.6142,0c0.38579,0.00001,0.62944,0.18783,0.73097,0.56345l0.19796,1.5838c0.56853-0.70049,1.203-1.2741,1.9036-1.7208,0.71065-0.44668,1.533-0.67003,2.467-0.67004,1.0457,0.00001,1.8883,0.28935,2.5279,0.86801,0.64973,0.5787,1.1167,1.3604,1.401,2.3452,0.21319-0.55836,0.49237-1.0406,0.83756-1.4467,0.35532-0.40608,0.75126-0.7411,1.1878-1.0051,0.43653-0.26394,0.89846-0.45683,1.3858-0.57867,0.49744-0.12182,0.99998-0.18273,1.5076-0.18274,0.81216,0.00001,1.533,0.13199,2.1624,0.39593,0.63957,0.25382,1.1776,0.62946,1.6142,1.1269,0.44667,0.49748,0.78677,1.1117,1.0203,1.8426,0.23348,0.72082,0.35023,1.5482,0.35025,2.4822v9.8223h-2.7106v-9.8223c-0.00002-1.2081-0.26398-2.1218-0.79188-2.7411-0.52793-0.62942-1.2944-0.94414-2.2995-0.94415-0.44672,0.00001-0.87311,0.0812-1.2792,0.24365-0.39595,0.1523-0.7462,0.38072-1.0508,0.68528-0.30459,0.30458-0.54824,0.69036-0.73097,1.1574-0.1726,0.45687-0.25889,0.98986-0.25888,1.599v9.8223h-2.7106v-9.8223c-0.00001-1.2386-0.24874-2.1624-0.74619-2.7716-0.49747-0.60912-1.2234-0.91369-2.1777-0.9137-0.67006,0.00001-1.2944,0.18275-1.8731,0.54822-0.56853,0.35534-1.0914,0.84265-1.5685,1.4619v11.497h-2.7106"/>
  <path d="m386.31,475.38-1.203,0c-0.26397,0-0.47717-0.0406-0.63959-0.12183-0.16245-0.0812-0.26905-0.2538-0.3198-0.51776l-0.30457-1.4315c-0.4061,0.36548-0.80203,0.69543-1.1878,0.98984-0.38579,0.28427-0.79188,0.52792-1.2183,0.73097-0.4264,0.19289-0.88325,0.3401-1.3706,0.44162-0.47717,0.10152-1.0102,0.15228-1.599,0.15228-0.59899,0-1.1624-0.0812-1.6904-0.24365-0.51777-0.17259-0.96955-0.4264-1.3553-0.76142-0.38579-0.33502-0.69543-0.75634-0.92893-1.264-0.22335-0.51776-0.33503-1.1269-0.33502-1.8274-0.00001-0.60913,0.16751-1.1929,0.50253-1.7513,0.33502-0.56852,0.87309-1.071,1.6142-1.5076,0.75126-0.43653,1.731-0.79186,2.9391-1.066,1.2081-0.28426,2.6853-0.44669,4.4315-0.48731v-1.203c-0.00002-1.198-0.2589-2.1015-0.77665-2.7106-0.50762-0.61928-1.264-0.92892-2.269-0.92893-0.6599,0.00001-1.2183,0.0863-1.6751,0.25888-0.44671,0.16245-0.83757,0.35026-1.1726,0.56345-0.32487,0.20306-0.60914,0.39087-0.85279,0.56345-0.2335,0.16245-0.467,0.24366-0.7005,0.24365-0.18275,0.00001-0.34518-0.0457-0.48731-0.13705-0.13198-0.10151-0.23858-0.22334-0.3198-0.36548l-0.4873-0.86802c0.85278-0.82232,1.7716-1.4365,2.7563-1.8426,0.98477-0.40607,2.0761-0.60912,3.2741-0.60913,0.86294,0.00001,1.6294,0.14215,2.2995,0.42639,0.67004,0.28428,1.2335,0.68022,1.6904,1.1878,0.45684,0.50762,0.80201,1.1218,1.0355,1.8426,0.23349,0.72082,0.35024,1.5127,0.35025,2.3756v9.868m-7.0355-1.6599c0.47715,0,0.9137-0.0457,1.3096-0.13706,0.39593-0.10152,0.76649-0.23858,1.1117-0.41117,0.35532-0.18273,0.69035-0.40101,1.0051-0.65482,0.32486-0.2538,0.63958-0.54314,0.94416-0.86801v-3.2132c-1.2487,0.0406-2.3096,0.14214-3.1827,0.30456-0.8731,0.1523-1.5838,0.35534-2.132,0.60914-0.54823,0.25381-0.94924,0.5533-1.203,0.89847-0.24366,0.34519-0.36549,0.73097-0.36548,1.1574-0.00001,0.40609,0.066,0.75635,0.19797,1.0508,0.13197,0.29442,0.30964,0.53807,0.53299,0.73096,0.22334,0.18274,0.4873,0.3198,0.79188,0.41117,0.30456,0.0812,0.63451,0.12183,0.98984,0.12183"/>
  <path d="m390.45,475.38,0-15.426,1.6142,0c0.38578,0.00001,0.62943,0.18783,0.73096,0.56345l0.2132,1.6751c0.67004-0.7411,1.4162-1.3401,2.2386-1.797,0.83248-0.45683,1.7919-0.68526,2.8782-0.68527,0.84262,0.00001,1.5837,0.14214,2.2233,0.42639,0.64973,0.27413,1.1878,0.67006,1.6142,1.1878,0.43653,0.50763,0.76648,1.1218,0.98984,1.8426,0.22334,0.72082,0.33501,1.5178,0.33503,2.3908v9.8223h-2.7107v-9.8223c-0.00001-1.1675-0.26904-2.071-0.8071-2.7106-0.52793-0.64973-1.3401-0.9746-2.4365-0.97461-0.80204,0.00001-1.5533,0.1929-2.2538,0.57867-0.69036,0.3858-1.33,0.90864-1.9188,1.5685v11.36h-2.7106"/>
  <path d="m407.4,475.38,0-15.426,1.6142,0c0.38578,0.00001,0.62943,0.18783,0.73096,0.56345l0.2132,1.6751c0.67004-0.7411,1.4162-1.3401,2.2386-1.797,0.83248-0.45683,1.7919-0.68526,2.8782-0.68527,0.84263,0.00001,1.5837,0.14214,2.2234,0.42639,0.64973,0.27413,1.1878,0.67006,1.6142,1.1878,0.43653,0.50763,0.76648,1.1218,0.98984,1.8426,0.22333,0.72082,0.33501,1.5178,0.33502,2.3908v9.8223h-2.7106v-9.8223c-0.00001-1.1675-0.26904-2.071-0.8071-2.7106-0.52793-0.64973-1.3401-0.9746-2.4365-0.97461-0.80204,0.00001-1.5533,0.1929-2.2538,0.57867-0.69036,0.3858-1.33,0.90864-1.9188,1.5685v11.36h-2.7106"/>
  <path d="m430.46,459.71c0.92384,0.00001,1.7766,0.15737,2.5584,0.47208,0.78172,0.30458,1.4568,0.75128,2.0254,1.3401,0.56851,0.57869,1.0101,1.2995,1.3249,2.1624,0.32486,0.8528,0.48729,1.8274,0.48731,2.9238-0.00002,0.4264-0.0457,0.71067-0.13706,0.85279-0.0914,0.14214-0.26397,0.21321-0.51776,0.2132h-10.264c0.0203,0.97462,0.15228,1.8223,0.39594,2.5431,0.24364,0.72081,0.57867,1.3249,1.0051,1.8122,0.42639,0.47716,0.934,0.83757,1.5228,1.0812,0.58882,0.2335,1.2487,0.35025,1.9797,0.35025,0.68019,0,1.2639-0.0761,1.7513-0.22842,0.49745-0.16244,0.92384-0.33502,1.2792-0.51777,0.35532-0.18274,0.64974-0.35025,0.88325-0.50253,0.24364-0.16244,0.45176-0.24366,0.62436-0.24366,0.22334,0,0.39593,0.0863,0.51777,0.25888l0.76142,0.98985c-0.33504,0.40609-0.73606,0.76142-1.203,1.066-0.46701,0.29441-0.96955,0.53807-1.5076,0.73096-0.52793,0.19289-1.0762,0.33502-1.6447,0.42639-0.56854,0.10152-1.132,0.15229-1.6904,0.15229-1.066,0-2.0508-0.17767-2.9543-0.533-0.8934-0.36548-1.67-0.89339-2.3299-1.5838-0.64974-0.7005-1.1574-1.5634-1.5228-2.5888-0.36548-1.0254-0.54822-2.203-0.54822-3.533,0-1.0761,0.16244-2.0812,0.48731-3.0152,0.33502-0.93399,0.81218-1.7411,1.4315-2.4213,0.61928-0.69034,1.3756-1.2284,2.269-1.6142,0.89339-0.39592,1.8985-0.59389,3.0152-0.5939m0.0609,1.9949c-1.3096,0.00002-2.3401,0.38073-3.0914,1.1421-0.75127,0.75128-1.2183,1.797-1.401,3.137h8.3908c-0.00001-0.62943-0.0863-1.203-0.25888-1.7208-0.1726-0.5279-0.4264-0.97968-0.76142-1.3553-0.33503-0.38578-0.7462-0.68019-1.2335-0.88325-0.47716-0.21318-1.0254-0.31978-1.6447-0.3198"/>
  <path d="m449.13,462.5c-0.12183,0.22336-0.30965,0.33504-0.56345,0.33502-0.15229,0.00002-0.32488-0.0558-0.51776-0.16751-0.1929-0.11166-0.43148-0.23349-0.71574-0.36548-0.27412-0.14212-0.60406-0.26902-0.98984-0.38071-0.38579-0.12181-0.84264-0.18273-1.3706-0.18274-0.45686,0.00001-0.86803,0.0609-1.2335,0.18274-0.36549,0.11169-0.68021,0.26905-0.94416,0.47208-0.25381,0.20306-0.45178,0.44164-0.59391,0.71573-0.13198,0.26397-0.19797,0.55331-0.19797,0.86802,0,0.39595,0.11167,0.7259,0.33503,0.98985,0.23349,0.26397,0.53806,0.49239,0.9137,0.68527,0.37563,0.19291,0.80202,0.36549,1.2792,0.51777,0.47715,0.14214,0.96446,0.2995,1.4619,0.47208,0.5076,0.16244,0.99999,0.34518,1.4772,0.54822,0.47715,0.20305,0.90354,0.45686,1.2792,0.76142,0.37563,0.30457,0.67512,0.68021,0.89848,1.1269,0.23349,0.43655,0.35024,0.96447,0.35025,1.5838-0.00001,0.71066-0.12691,1.3706-0.38071,1.9797-0.25382,0.59899-0.62945,1.1218-1.1269,1.5685-0.49747,0.43655-1.1066,0.78173-1.8274,1.0355-0.72082,0.25381-1.5533,0.38071-2.4975,0.38071-1.0761,0-2.0508-0.17259-2.9238-0.51776-0.87309-0.35533-1.6142-0.80711-2.2233-1.3553l0.63959-1.0355c0.0812-0.13197,0.17766-0.2335,0.28934-0.30457,0.11167-0.0711,0.25888-0.10659,0.44162-0.10659s0.37563,0.0711,0.57868,0.21319c0.20304,0.14214,0.4467,0.2995,0.73096,0.47208,0.29442,0.17259,0.64467,0.32995,1.0508,0.47208,0.41624,0.14214,0.934,0.2132,1.5533,0.2132,0.52791,0,0.98983-0.066,1.3858-0.19797,0.39593-0.14213,0.72588-0.32995,0.98984-0.56345,0.26395-0.2335,0.45685-0.50253,0.57868-0.8071,0.13197-0.30457,0.19796-0.62944,0.19797-0.97462-0.00001-0.42639-0.11676-0.77664-0.35025-1.0508-0.22336-0.28426-0.52285-0.52283-0.89848-0.71573-0.37564-0.20304-0.80711-0.37563-1.2944-0.51777-0.47716-0.15227-0.96954-0.30963-1.4772-0.47208-0.49747-0.16243-0.98985-0.34517-1.4772-0.54822-0.47716-0.21319-0.90356-0.47715-1.2792-0.79187-0.37563-0.31472-0.6802-0.7005-0.9137-1.1574-0.22335-0.46699-0.33503-1.0304-0.33502-1.6904-0.00001-0.58882,0.12182-1.1523,0.36548-1.6904,0.24365-0.54821,0.59898-1.0254,1.066-1.4315,0.467-0.41623,1.0406-0.74617,1.7208-0.98984,0.6802-0.24364,1.4568-0.36547,2.3299-0.36548,1.0152,0.00001,1.9238,0.16245,2.7259,0.4873,0.81217,0.31474,1.5127,0.75128,2.1015,1.3096l-0.60914,0.98985"/>
 </g>
 <path stroke-linejoin="miter" d="m64,179,170,0" stroke="#424242" stroke-linecap="butt" stroke-width="1px" fill="none"/>
 <metadata>
  <rdf:RDF>
   <cc:Work rdf:about="">
    <dc:title/>
    <dc:format>image/svg+xml</dc:format>
    <dc:type rdf:resource="http://purl.org/dc/dcmitype/StillImage"/>
   </cc:Work>
  </rdf:RDF>
 </metadata>
 <g font-size="30.45676041000000112px" line-height="66.60000085999999442%" transform="translate(-281,-298.33133)" font-family="Sans" style="letter-spacing:0px;word-spacing:0px;" font-style="normal" font-weight="normal" fill="#aa80ff">
  <path d="m350,496.12,0-15.426,1.5533,0c0.29441,0.00002,0.49746,0.0559,0.60914,0.16751,0.11167,0.11169,0.18781,0.30459,0.22842,0.57868l0.18274,2.4061c0.52791-1.0761,1.1777-1.9137,1.9492-2.5127,0.78172-0.60912,1.6954-0.91368,2.7411-0.9137,0.42639,0.00002,0.81217,0.0508,1.1574,0.15229,0.34517,0.0914,0.66496,0.22336,0.95939,0.39593l-0.35026,2.0254c-0.0711,0.25382-0.22843,0.38072-0.47207,0.38071-0.14215,0.00001-0.36042-0.0457-0.65483-0.13706-0.29442-0.10151-0.70559-0.15227-1.2335-0.15228-0.94417,0.00001-1.736,0.27412-2.3756,0.82233-0.62945,0.54823-1.1574,1.3452-1.5838,2.3909v9.8223h-2.7106"/>
  <path d="m368.36,480.45c0.92385,0.00001,1.7766,0.15737,2.5584,0.47208,0.78171,0.30458,1.4568,0.75128,2.0254,1.3401,0.56851,0.57869,1.0101,1.2995,1.3249,2.1624,0.32486,0.8528,0.4873,1.8274,0.48731,2.9238-0.00001,0.42641-0.0457,0.71067-0.13705,0.85279-0.0914,0.14214-0.26398,0.21321-0.51777,0.2132h-10.264c0.0203,0.97462,0.15228,1.8223,0.39594,2.5431,0.24365,0.72081,0.57868,1.3249,1.0051,1.8122,0.42638,0.47716,0.934,0.83756,1.5228,1.0812,0.58883,0.23351,1.2487,0.35026,1.9797,0.35026,0.68019,0,1.264-0.0761,1.7513-0.22843,0.49745-0.16243,0.92384-0.33502,1.2792-0.51777,0.35532-0.18273,0.64973-0.35024,0.88325-0.50253,0.24364-0.16243,0.45176-0.24365,0.62436-0.24366,0.22334,0.00001,0.39592,0.0863,0.51776,0.25889l0.76142,0.98984c-0.33503,0.40609-0.73605,0.76142-1.203,1.066-0.46701,0.29441-0.96955,0.53807-1.5076,0.73096-0.52793,0.19289-1.0762,0.33502-1.6447,0.42639-0.56854,0.10153-1.132,0.15229-1.6904,0.15229-1.066,0-2.0508-0.17767-2.9543-0.53299-0.8934-0.36548-1.67-0.8934-2.3299-1.5838-0.64975-0.7005-1.1574-1.5634-1.5228-2.5888-0.36548-1.0254-0.54822-2.203-0.54822-3.533,0-1.0761,0.16243-2.0812,0.48731-3.0152,0.33502-0.934,0.81218-1.7411,1.4315-2.4213,0.61928-0.69034,1.3756-1.2284,2.269-1.6142,0.8934-0.39593,1.8985-0.5939,3.0152-0.59391m0.0609,1.9949c-1.3096,0.00001-2.3401,0.38072-3.0914,1.1421-0.75128,0.75128-1.2183,1.797-1.401,3.137h8.3908c-0.00001-0.62943-0.0863-1.203-0.25888-1.7208-0.1726-0.5279-0.42641-0.97968-0.76142-1.3553-0.33503-0.38577-0.7462-0.68019-1.2335-0.88325-0.47716-0.21318-1.0254-0.31978-1.6447-0.31979"/>
  <path d="m387.03,483.24c-0.12184,0.22336-0.30965,0.33504-0.56345,0.33503-0.15229,0.00001-0.32488-0.0558-0.51776-0.16752-0.19291-0.11166-0.43148-0.23348-0.71574-0.36548-0.27412-0.14212-0.60406-0.26902-0.98984-0.38071-0.38579-0.12181-0.84265-0.18272-1.3706-0.18274-0.45685,0.00002-0.86802,0.0609-1.2335,0.18274-0.36549,0.11169-0.68021,0.26905-0.94416,0.47208-0.25381,0.20306-0.45178,0.44164-0.59391,0.71574-0.13198,0.26397-0.19797,0.55331-0.19797,0.86801,0,0.39595,0.11167,0.7259,0.33502,0.98985,0.2335,0.26397,0.53807,0.49239,0.91371,0.68528,0.37563,0.1929,0.80202,0.36549,1.2792,0.51776,0.47715,0.14214,0.96446,0.2995,1.4619,0.47208,0.5076,0.16245,0.99998,0.34519,1.4772,0.54822,0.47715,0.20306,0.90354,0.45686,1.2792,0.76142,0.37563,0.30458,0.67512,0.68021,0.89848,1.1269,0.23349,0.43655,0.35024,0.96447,0.35025,1.5838-0.00001,0.71067-0.12691,1.3706-0.38071,1.9797-0.25382,0.59899-0.62945,1.1218-1.1269,1.5685-0.49747,0.43654-1.1066,0.78172-1.8274,1.0355-0.72081,0.2538-1.5533,0.38071-2.4974,0.38071-1.0761,0-2.0508-0.17259-2.9238-0.51777-0.87309-0.35533-1.6142-0.8071-2.2233-1.3553l0.63959-1.0355c0.0812-0.13197,0.17766-0.23349,0.28934-0.30456,0.11167-0.0711,0.25888-0.1066,0.44162-0.1066s0.37563,0.0711,0.57868,0.2132c0.20304,0.14213,0.4467,0.29949,0.73096,0.47208,0.29441,0.17259,0.64467,0.32995,1.0508,0.47208,0.41624,0.14213,0.934,0.21319,1.5533,0.21319,0.52791,0,0.98983-0.066,1.3858-0.19797,0.39593-0.14213,0.72588-0.32994,0.98984-0.56345,0.26395-0.2335,0.45685-0.50253,0.57868-0.8071,0.13197-0.30456,0.19796-0.62944,0.19797-0.97462-0.00001-0.42639-0.11676-0.77664-0.35025-1.0508-0.22336-0.28426-0.52285-0.52284-0.89848-0.71574-0.37564-0.20304-0.80711-0.37563-1.2944-0.51776-0.47716-0.15228-0.96954-0.30964-1.4772-0.47208-0.49747-0.16243-0.98985-0.34517-1.4772-0.54823-0.47716-0.21318-0.90356-0.47714-1.2792-0.79187-0.37563-0.31471-0.6802-0.7005-0.9137-1.1574-0.22335-0.46699-0.33503-1.0304-0.33503-1.6904,0-0.58882,0.12183-1.1523,0.36549-1.6904,0.24365-0.54821,0.59898-1.0254,1.066-1.4315,0.467-0.41622,1.0406-0.74617,1.7208-0.98984,0.68019-0.24364,1.4568-0.36547,2.3299-0.36548,1.0152,0.00001,1.9238,0.16245,2.7259,0.48731,0.81217,0.31473,1.5127,0.75128,2.1015,1.3096l-0.60914,0.98984"/>
  <path d="m397.51,480.45c0.92384,0.00001,1.7766,0.15737,2.5584,0.47208,0.78172,0.30458,1.4568,0.75128,2.0254,1.3401,0.56851,0.57869,1.0101,1.2995,1.3249,2.1624,0.32486,0.8528,0.48729,1.8274,0.48731,2.9238-0.00002,0.42641-0.0457,0.71067-0.13706,0.85279-0.0914,0.14214-0.26397,0.21321-0.51776,0.2132h-10.264c0.0203,0.97462,0.15228,1.8223,0.39594,2.5431,0.24365,0.72081,0.57867,1.3249,1.0051,1.8122,0.42639,0.47716,0.934,0.83756,1.5228,1.0812,0.58882,0.23351,1.2487,0.35026,1.9797,0.35026,0.68019,0,1.2639-0.0761,1.7513-0.22843,0.49745-0.16243,0.92384-0.33502,1.2792-0.51777,0.35532-0.18273,0.64974-0.35024,0.88325-0.50253,0.24364-0.16243,0.45176-0.24365,0.62436-0.24366,0.22334,0.00001,0.39593,0.0863,0.51777,0.25889l0.76142,0.98984c-0.33504,0.40609-0.73605,0.76142-1.203,1.066-0.46702,0.29441-0.96956,0.53807-1.5076,0.73096-0.52793,0.19289-1.0762,0.33502-1.6447,0.42639-0.56854,0.10153-1.132,0.15229-1.6904,0.15229-1.066,0-2.0508-0.17767-2.9543-0.53299-0.8934-0.36548-1.67-0.8934-2.3299-1.5838-0.64974-0.7005-1.1574-1.5634-1.5228-2.5888-0.36548-1.0254-0.54822-2.203-0.54822-3.533,0-1.0761,0.16244-2.0812,0.48731-3.0152,0.33502-0.934,0.81218-1.7411,1.4315-2.4213,0.61928-0.69034,1.3756-1.2284,2.269-1.6142,0.89339-0.39593,1.8985-0.5939,3.0152-0.59391m0.0609,1.9949c-1.3096,0.00001-2.3401,0.38072-3.0914,1.1421-0.75127,0.75128-1.2183,1.797-1.401,3.137h8.3908c-0.00002-0.62943-0.0863-1.203-0.25889-1.7208-0.1726-0.5279-0.4264-0.97968-0.76142-1.3553-0.33503-0.38577-0.7462-0.68019-1.2335-0.88325-0.47717-0.21318-1.0254-0.31978-1.6447-0.31979"/>
  <path d="m407.34,496.12,0-15.426,1.5533,0c0.29441,0.00002,0.49745,0.0559,0.60913,0.16751,0.11167,0.11169,0.18782,0.30459,0.22843,0.57868l0.18274,2.4061c0.52791-1.0761,1.1777-1.9137,1.9492-2.5127,0.78172-0.60912,1.6954-0.91368,2.7411-0.9137,0.42639,0.00002,0.81217,0.0508,1.1574,0.15229,0.34516,0.0914,0.66496,0.22336,0.95939,0.39593l-0.35026,2.0254c-0.0711,0.25382-0.22843,0.38072-0.47208,0.38071-0.14214,0.00001-0.36041-0.0457-0.65482-0.13706-0.29442-0.10151-0.70559-0.15227-1.2335-0.15228-0.94416,0.00001-1.736,0.27412-2.3756,0.82233-0.62945,0.54823-1.1574,1.3452-1.5838,2.3909v9.8223h-2.7107"/>
  <path d="m417.65,480.69,2.2233,0c0.2132,0.00002,0.39086,0.0559,0.533,0.16751,0.14213,0.11169,0.24365,0.24367,0.30456,0.39594l3.9137,9.9289c0.14212,0.36548,0.2538,0.73096,0.33502,1.0964,0.0812,0.36548,0.15735,0.72589,0.22843,1.0812,0.0812-0.35532,0.1675-0.71573,0.25888-1.0812,0.0914-0.36548,0.20811-0.73096,0.35025-1.0964l3.9594-9.9289c0.0609-0.16242,0.15735-0.2944,0.28934-0.39594,0.14212-0.11165,0.31471-0.16749,0.51777-0.16751h2.1167l-6.2893,15.426h-2.4518l-6.2893-15.426"/>
  <path d="m440.87,480.45c0.92384,0.00001,1.7766,0.15737,2.5584,0.47208,0.78171,0.30458,1.4568,0.75128,2.0254,1.3401,0.56851,0.57869,1.0101,1.2995,1.3249,2.1624,0.32485,0.8528,0.48729,1.8274,0.4873,2.9238-0.00001,0.42641-0.0457,0.71067-0.13705,0.85279-0.0914,0.14214-0.26397,0.21321-0.51777,0.2132h-10.264c0.0203,0.97462,0.15228,1.8223,0.39593,2.5431,0.24365,0.72081,0.57868,1.3249,1.0051,1.8122,0.42639,0.47716,0.934,0.83756,1.5228,1.0812,0.58882,0.23351,1.2487,0.35026,1.9797,0.35026,0.6802,0,1.264-0.0761,1.7513-0.22843,0.49745-0.16243,0.92384-0.33502,1.2792-0.51777,0.35532-0.18273,0.64973-0.35024,0.88325-0.50253,0.24364-0.16243,0.45176-0.24365,0.62436-0.24366,0.22334,0.00001,0.39593,0.0863,0.51777,0.25889l0.76142,0.98984c-0.33504,0.40609-0.73606,0.76142-1.203,1.066-0.46701,0.29441-0.96955,0.53807-1.5076,0.73096-0.52792,0.19289-1.0762,0.33502-1.6447,0.42639-0.56854,0.10153-1.132,0.15229-1.6904,0.15229-1.066,0-2.0508-0.17767-2.9543-0.53299-0.8934-0.36548-1.67-0.8934-2.3299-1.5838-0.64975-0.7005-1.1574-1.5634-1.5228-2.5888-0.36548-1.0254-0.54822-2.203-0.54822-3.533,0-1.0761,0.16244-2.0812,0.48731-3.0152,0.33502-0.934,0.81218-1.7411,1.4315-2.4213,0.61928-0.69034,1.3756-1.2284,2.269-1.6142,0.89339-0.39593,1.8985-0.5939,3.0152-0.59391m0.0609,1.9949c-1.3096,0.00001-2.3401,0.38072-3.0914,1.1421-0.75127,0.75128-1.2183,1.797-1.401,3.137h8.3908c-0.00001-0.62943-0.0863-1.203-0.25888-1.7208-0.1726-0.5279-0.4264-0.97968-0.76142-1.3553-0.33503-0.38577-0.7462-0.68019-1.2335-0.88325-0.47716-0.21318-1.0254-0.31978-1.6447-0.31979"/>
 </g>
</svg>
